<mxfile host="Electron" agent="Mozilla/5.0 (Macintosh; Intel Mac OS X 10_15_7) AppleWebKit/537.36 (KHTML, like Gecko) draw.io/24.7.17 Chrome/128.0.6613.36 Electron/32.0.1 Safari/537.36" version="24.7.17">
  <diagram name="Solution" id="-H_mtQnk-PTXWXPvYvuk">
    <mxGraphModel dx="4097" dy="2591" grid="1" gridSize="10" guides="1" tooltips="1" connect="1" arrows="1" fold="1" page="1" pageScale="1" pageWidth="1169" pageHeight="827" math="0" shadow="0">
      <root>
        <mxCell id="0" />
        <mxCell id="1" parent="0" />
        <mxCell id="znPcpwRS4Ozd1VktsHSt-74" style="edgeStyle=orthogonalEdgeStyle;rounded=0;orthogonalLoop=1;jettySize=auto;html=1;entryX=0;entryY=0.5;entryDx=0;entryDy=0;dashed=1;dashPattern=8 8;" parent="1" source="znPcpwRS4Ozd1VktsHSt-12" target="znPcpwRS4Ozd1VktsHSt-13" edge="1">
          <mxGeometry relative="1" as="geometry" />
        </mxCell>
        <mxCell id="znPcpwRS4Ozd1VktsHSt-12" value="&lt;h1 style=&quot;margin-top: 0px;&quot;&gt;MongoDB sharding&lt;/h1&gt;&lt;p&gt;Number of shards is 2&lt;/p&gt;" style="text;html=1;whiteSpace=wrap;overflow=hidden;rounded=0;" parent="1" vertex="1">
          <mxGeometry x="60" y="30" width="240" height="80" as="geometry" />
        </mxCell>
        <mxCell id="znPcpwRS4Ozd1VktsHSt-75" style="edgeStyle=orthogonalEdgeStyle;rounded=0;orthogonalLoop=1;jettySize=auto;html=1;entryX=0;entryY=0.5;entryDx=0;entryDy=0;dashed=1;dashPattern=8 8;" parent="1" source="znPcpwRS4Ozd1VktsHSt-13" target="znPcpwRS4Ozd1VktsHSt-14" edge="1">
          <mxGeometry relative="1" as="geometry" />
        </mxCell>
        <mxCell id="znPcpwRS4Ozd1VktsHSt-13" value="&lt;h1 style=&quot;margin-top: 0px;&quot;&gt;MongoDB replication&lt;/h1&gt;&lt;p&gt;Number of replicas is 3&lt;/p&gt;" style="text;html=1;whiteSpace=wrap;overflow=hidden;rounded=0;" parent="1" vertex="1">
          <mxGeometry x="560" y="30" width="260" height="80" as="geometry" />
        </mxCell>
        <mxCell id="znPcpwRS4Ozd1VktsHSt-14" value="&lt;h1 style=&quot;margin-top: 0px;&quot;&gt;&lt;span style=&quot;background-color: initial;&quot;&gt;Redis caching&lt;/span&gt;&lt;br&gt;&lt;/h1&gt;" style="text;html=1;whiteSpace=wrap;overflow=hidden;rounded=0;" parent="1" vertex="1">
          <mxGeometry x="1130" y="50" width="180" height="40" as="geometry" />
        </mxCell>
        <mxCell id="znPcpwRS4Ozd1VktsHSt-20" value="&lt;h1 style=&quot;margin-top: 0px;&quot;&gt;&lt;span style=&quot;background-color: initial;&quot;&gt;API Gateway &amp;amp; Consul&lt;/span&gt;&lt;br&gt;&lt;/h1&gt;" style="text;html=1;whiteSpace=wrap;overflow=hidden;rounded=0;" parent="1" vertex="1">
          <mxGeometry x="1770" y="50" width="290" height="40" as="geometry" />
        </mxCell>
        <mxCell id="znPcpwRS4Ozd1VktsHSt-21" value="&lt;h1 style=&quot;margin-top: 0px;&quot;&gt;&lt;span style=&quot;background-color: initial;&quot;&gt;CDN&lt;/span&gt;&lt;br&gt;&lt;/h1&gt;" style="text;html=1;whiteSpace=wrap;overflow=hidden;rounded=0;" parent="1" vertex="1">
          <mxGeometry x="2440" y="50" width="80" height="40" as="geometry" />
        </mxCell>
        <mxCell id="znPcpwRS4Ozd1VktsHSt-109" value="&lt;h1 style=&quot;margin-top: 0px;&quot;&gt;&lt;span style=&quot;background-color: initial;&quot;&gt;Final version&lt;/span&gt;&lt;br&gt;&lt;/h1&gt;" style="text;html=1;whiteSpace=wrap;overflow=hidden;rounded=0;fillColor=#FF3E17;" parent="1" vertex="1">
          <mxGeometry x="2440" y="10" width="170" height="40" as="geometry" />
        </mxCell>
        <mxCell id="YIHOmkOXP7C3vBAiOU8p-4" value="" style="group" parent="1" vertex="1" connectable="0">
          <mxGeometry x="60" y="120" width="440" height="450" as="geometry" />
        </mxCell>
        <mxCell id="zA23MoTUsTF4_91t8viU-2" value="MongoDB" style="shape=cylinder3;whiteSpace=wrap;html=1;boundedLbl=1;backgroundOutline=1;size=15;" parent="YIHOmkOXP7C3vBAiOU8p-4" vertex="1">
          <mxGeometry x="60" y="330" width="60" height="80" as="geometry" />
        </mxCell>
        <mxCell id="YIHOmkOXP7C3vBAiOU8p-2" style="edgeStyle=orthogonalEdgeStyle;rounded=0;orthogonalLoop=1;jettySize=auto;html=1;exitX=0.5;exitY=1;exitDx=0;exitDy=0;" parent="YIHOmkOXP7C3vBAiOU8p-4" source="zA23MoTUsTF4_91t8viU-3" target="znPcpwRS4Ozd1VktsHSt-5" edge="1">
          <mxGeometry relative="1" as="geometry" />
        </mxCell>
        <mxCell id="zA23MoTUsTF4_91t8viU-3" value="pymongo-api" style="rounded=1;whiteSpace=wrap;html=1;" parent="YIHOmkOXP7C3vBAiOU8p-4" vertex="1">
          <mxGeometry x="120" y="30" width="120" height="40" as="geometry" />
        </mxCell>
        <mxCell id="znPcpwRS4Ozd1VktsHSt-2" value="MongoDB" style="shape=cylinder3;whiteSpace=wrap;html=1;boundedLbl=1;backgroundOutline=1;size=15;" parent="YIHOmkOXP7C3vBAiOU8p-4" vertex="1">
          <mxGeometry x="225" y="330" width="60" height="80" as="geometry" />
        </mxCell>
        <mxCell id="znPcpwRS4Ozd1VktsHSt-5" value="MongoDB Router" style="rounded=1;whiteSpace=wrap;html=1;" parent="YIHOmkOXP7C3vBAiOU8p-4" vertex="1">
          <mxGeometry x="120" y="150" width="120" height="60" as="geometry" />
        </mxCell>
        <mxCell id="znPcpwRS4Ozd1VktsHSt-10" value="configSrv" style="text;html=1;align=center;verticalAlign=middle;whiteSpace=wrap;rounded=1;strokeColor=#d79b00;fillColor=#ffe6cc;" parent="YIHOmkOXP7C3vBAiOU8p-4" vertex="1">
          <mxGeometry x="320" y="120" width="60" height="30" as="geometry" />
        </mxCell>
        <mxCell id="znPcpwRS4Ozd1VktsHSt-16" value="shard1-1" style="text;html=1;align=center;verticalAlign=middle;whiteSpace=wrap;rounded=1;strokeColor=#d79b00;fillColor=#ffe6cc;" parent="YIHOmkOXP7C3vBAiOU8p-4" vertex="1">
          <mxGeometry y="310" width="60" height="30" as="geometry" />
        </mxCell>
        <mxCell id="znPcpwRS4Ozd1VktsHSt-18" value="shard2-1" style="text;html=1;align=center;verticalAlign=middle;whiteSpace=wrap;rounded=1;strokeColor=#d79b00;fillColor=#ffe6cc;" parent="YIHOmkOXP7C3vBAiOU8p-4" vertex="1">
          <mxGeometry x="165" y="310" width="60" height="30" as="geometry" />
        </mxCell>
        <mxCell id="znPcpwRS4Ozd1VktsHSt-22" value="MongoDB Config Server" style="rounded=1;whiteSpace=wrap;html=1;" parent="YIHOmkOXP7C3vBAiOU8p-4" vertex="1">
          <mxGeometry x="320" y="150" width="120" height="60" as="geometry" />
        </mxCell>
        <mxCell id="znPcpwRS4Ozd1VktsHSt-25" value="router" style="text;html=1;align=center;verticalAlign=middle;whiteSpace=wrap;rounded=1;strokeColor=#d79b00;fillColor=#ffe6cc;" parent="YIHOmkOXP7C3vBAiOU8p-4" vertex="1">
          <mxGeometry x="105" y="120" width="60" height="30" as="geometry" />
        </mxCell>
        <mxCell id="znPcpwRS4Ozd1VktsHSt-28" value="" style="endArrow=classic;html=1;rounded=1;exitX=1;exitY=0.5;exitDx=0;exitDy=0;exitPerimeter=0;entryX=0.5;entryY=1;entryDx=0;entryDy=0;curved=0;" parent="YIHOmkOXP7C3vBAiOU8p-4" source="znPcpwRS4Ozd1VktsHSt-2" target="znPcpwRS4Ozd1VktsHSt-22" edge="1">
          <mxGeometry width="50" height="50" relative="1" as="geometry">
            <mxPoint x="485" y="90" as="sourcePoint" />
            <mxPoint x="535" y="40" as="targetPoint" />
            <Array as="points">
              <mxPoint x="380" y="370" />
            </Array>
          </mxGeometry>
        </mxCell>
        <mxCell id="znPcpwRS4Ozd1VktsHSt-29" value="" style="endArrow=classic;html=1;rounded=1;exitX=1;exitY=0.5;exitDx=0;exitDy=0;exitPerimeter=0;entryX=0.5;entryY=1;entryDx=0;entryDy=0;curved=0;" parent="YIHOmkOXP7C3vBAiOU8p-4" source="zA23MoTUsTF4_91t8viU-2" target="znPcpwRS4Ozd1VktsHSt-22" edge="1">
          <mxGeometry width="50" height="50" relative="1" as="geometry">
            <mxPoint x="355" y="380" as="sourcePoint" />
            <mxPoint x="485" y="220" as="targetPoint" />
            <Array as="points">
              <mxPoint x="145" y="370" />
              <mxPoint x="145" y="410" />
              <mxPoint x="145" y="450" />
              <mxPoint x="380" y="450" />
              <mxPoint x="380" y="370" />
            </Array>
          </mxGeometry>
        </mxCell>
        <mxCell id="znPcpwRS4Ozd1VktsHSt-30" value="" style="endArrow=classic;html=1;rounded=1;exitX=0.5;exitY=1;exitDx=0;exitDy=0;entryX=0.5;entryY=0;entryDx=0;entryDy=0;entryPerimeter=0;strokeColor=none;curved=0;" parent="YIHOmkOXP7C3vBAiOU8p-4" source="znPcpwRS4Ozd1VktsHSt-5" target="zA23MoTUsTF4_91t8viU-2" edge="1">
          <mxGeometry width="50" height="50" relative="1" as="geometry">
            <mxPoint x="485" y="270" as="sourcePoint" />
            <mxPoint x="535" y="220" as="targetPoint" />
            <Array as="points">
              <mxPoint x="180" y="250" />
              <mxPoint x="90" y="250" />
            </Array>
          </mxGeometry>
        </mxCell>
        <mxCell id="znPcpwRS4Ozd1VktsHSt-32" value="" style="endArrow=classic;html=1;rounded=1;exitX=0.5;exitY=1;exitDx=0;exitDy=0;entryX=0.5;entryY=0;entryDx=0;entryDy=0;entryPerimeter=0;curved=0;" parent="YIHOmkOXP7C3vBAiOU8p-4" source="znPcpwRS4Ozd1VktsHSt-5" target="znPcpwRS4Ozd1VktsHSt-2" edge="1">
          <mxGeometry width="50" height="50" relative="1" as="geometry">
            <mxPoint x="485" y="230" as="sourcePoint" />
            <mxPoint x="535" y="180" as="targetPoint" />
            <Array as="points">
              <mxPoint x="180" y="250" />
              <mxPoint x="255" y="250" />
            </Array>
          </mxGeometry>
        </mxCell>
        <mxCell id="znPcpwRS4Ozd1VktsHSt-33" value="" style="endArrow=classic;html=1;rounded=1;exitX=0.5;exitY=1;exitDx=0;exitDy=0;entryX=0;entryY=0.5;entryDx=0;entryDy=0;curved=0;" parent="YIHOmkOXP7C3vBAiOU8p-4" source="znPcpwRS4Ozd1VktsHSt-5" target="znPcpwRS4Ozd1VktsHSt-22" edge="1">
          <mxGeometry width="50" height="50" relative="1" as="geometry">
            <mxPoint x="257.5" y="210" as="sourcePoint" />
            <mxPoint x="535" y="180" as="targetPoint" />
            <Array as="points">
              <mxPoint x="180" y="250" />
              <mxPoint x="300" y="250" />
              <mxPoint x="300" y="220" />
              <mxPoint x="300" y="180" />
            </Array>
          </mxGeometry>
        </mxCell>
        <mxCell id="znPcpwRS4Ozd1VktsHSt-34" value="api" style="text;html=1;align=center;verticalAlign=middle;whiteSpace=wrap;rounded=1;strokeColor=#d79b00;fillColor=#ffe6cc;" parent="YIHOmkOXP7C3vBAiOU8p-4" vertex="1">
          <mxGeometry x="120" width="60" height="30" as="geometry" />
        </mxCell>
        <mxCell id="YIHOmkOXP7C3vBAiOU8p-3" style="edgeStyle=orthogonalEdgeStyle;rounded=1;orthogonalLoop=1;jettySize=auto;html=1;exitX=0.5;exitY=1;exitDx=0;exitDy=0;entryX=0.5;entryY=0;entryDx=0;entryDy=0;entryPerimeter=0;curved=0;" parent="YIHOmkOXP7C3vBAiOU8p-4" source="znPcpwRS4Ozd1VktsHSt-5" target="zA23MoTUsTF4_91t8viU-2" edge="1">
          <mxGeometry relative="1" as="geometry">
            <Array as="points">
              <mxPoint x="180" y="250" />
              <mxPoint x="90" y="250" />
            </Array>
          </mxGeometry>
        </mxCell>
        <mxCell id="YIHOmkOXP7C3vBAiOU8p-23" value="" style="group" parent="1" vertex="1" connectable="0">
          <mxGeometry x="520" y="120" width="440" height="520" as="geometry" />
        </mxCell>
        <mxCell id="YIHOmkOXP7C3vBAiOU8p-24" value="MongoDB" style="shape=cylinder3;whiteSpace=wrap;html=1;boundedLbl=1;backgroundOutline=1;size=15;" parent="YIHOmkOXP7C3vBAiOU8p-23" vertex="1">
          <mxGeometry x="60" y="330" width="60" height="80" as="geometry" />
        </mxCell>
        <mxCell id="YIHOmkOXP7C3vBAiOU8p-25" style="edgeStyle=orthogonalEdgeStyle;rounded=0;orthogonalLoop=1;jettySize=auto;html=1;exitX=0.5;exitY=1;exitDx=0;exitDy=0;" parent="YIHOmkOXP7C3vBAiOU8p-23" source="YIHOmkOXP7C3vBAiOU8p-26" target="YIHOmkOXP7C3vBAiOU8p-28" edge="1">
          <mxGeometry relative="1" as="geometry" />
        </mxCell>
        <mxCell id="YIHOmkOXP7C3vBAiOU8p-26" value="pymongo-api" style="rounded=1;whiteSpace=wrap;html=1;" parent="YIHOmkOXP7C3vBAiOU8p-23" vertex="1">
          <mxGeometry x="120" y="30" width="120" height="40" as="geometry" />
        </mxCell>
        <mxCell id="YIHOmkOXP7C3vBAiOU8p-27" value="MongoDB" style="shape=cylinder3;whiteSpace=wrap;html=1;boundedLbl=1;backgroundOutline=1;size=15;" parent="YIHOmkOXP7C3vBAiOU8p-23" vertex="1">
          <mxGeometry x="225" y="330" width="60" height="80" as="geometry" />
        </mxCell>
        <mxCell id="YIHOmkOXP7C3vBAiOU8p-28" value="MongoDB Router" style="rounded=1;whiteSpace=wrap;html=1;" parent="YIHOmkOXP7C3vBAiOU8p-23" vertex="1">
          <mxGeometry x="120" y="150" width="120" height="60" as="geometry" />
        </mxCell>
        <mxCell id="YIHOmkOXP7C3vBAiOU8p-29" value="configSrv" style="text;html=1;align=center;verticalAlign=middle;whiteSpace=wrap;rounded=1;strokeColor=#d79b00;fillColor=#ffe6cc;" parent="YIHOmkOXP7C3vBAiOU8p-23" vertex="1">
          <mxGeometry x="320" y="120" width="60" height="30" as="geometry" />
        </mxCell>
        <mxCell id="YIHOmkOXP7C3vBAiOU8p-30" value="shard1-1" style="text;html=1;align=center;verticalAlign=middle;whiteSpace=wrap;rounded=1;strokeColor=#d79b00;fillColor=#ffe6cc;" parent="YIHOmkOXP7C3vBAiOU8p-23" vertex="1">
          <mxGeometry y="310" width="60" height="30" as="geometry" />
        </mxCell>
        <mxCell id="YIHOmkOXP7C3vBAiOU8p-31" value="shard2-1" style="text;html=1;align=center;verticalAlign=middle;whiteSpace=wrap;rounded=1;strokeColor=#d79b00;fillColor=#ffe6cc;" parent="YIHOmkOXP7C3vBAiOU8p-23" vertex="1">
          <mxGeometry x="165" y="310" width="60" height="30" as="geometry" />
        </mxCell>
        <mxCell id="YIHOmkOXP7C3vBAiOU8p-32" value="MongoDB Config Server" style="rounded=1;whiteSpace=wrap;html=1;" parent="YIHOmkOXP7C3vBAiOU8p-23" vertex="1">
          <mxGeometry x="320" y="150" width="120" height="60" as="geometry" />
        </mxCell>
        <mxCell id="YIHOmkOXP7C3vBAiOU8p-33" value="router" style="text;html=1;align=center;verticalAlign=middle;whiteSpace=wrap;rounded=1;strokeColor=#d79b00;fillColor=#ffe6cc;" parent="YIHOmkOXP7C3vBAiOU8p-23" vertex="1">
          <mxGeometry x="105" y="120" width="60" height="30" as="geometry" />
        </mxCell>
        <mxCell id="YIHOmkOXP7C3vBAiOU8p-34" value="" style="endArrow=classic;html=1;rounded=1;exitX=1;exitY=0.5;exitDx=0;exitDy=0;exitPerimeter=0;entryX=0.5;entryY=1;entryDx=0;entryDy=0;curved=0;" parent="YIHOmkOXP7C3vBAiOU8p-23" source="YIHOmkOXP7C3vBAiOU8p-27" target="YIHOmkOXP7C3vBAiOU8p-32" edge="1">
          <mxGeometry width="50" height="50" relative="1" as="geometry">
            <mxPoint x="485" y="90" as="sourcePoint" />
            <mxPoint x="535" y="40" as="targetPoint" />
            <Array as="points">
              <mxPoint x="380" y="370" />
            </Array>
          </mxGeometry>
        </mxCell>
        <mxCell id="YIHOmkOXP7C3vBAiOU8p-35" value="" style="endArrow=classic;html=1;rounded=1;exitX=1;exitY=0.5;exitDx=0;exitDy=0;exitPerimeter=0;entryX=0.5;entryY=1;entryDx=0;entryDy=0;curved=0;" parent="YIHOmkOXP7C3vBAiOU8p-23" source="YIHOmkOXP7C3vBAiOU8p-24" target="YIHOmkOXP7C3vBAiOU8p-32" edge="1">
          <mxGeometry width="50" height="50" relative="1" as="geometry">
            <mxPoint x="355" y="380" as="sourcePoint" />
            <mxPoint x="485" y="220" as="targetPoint" />
            <Array as="points">
              <mxPoint x="170" y="370" />
              <mxPoint x="170" y="410" />
              <mxPoint x="170" y="550" />
              <mxPoint x="270" y="550" />
              <mxPoint x="380" y="550" />
              <mxPoint x="380" y="370" />
            </Array>
          </mxGeometry>
        </mxCell>
        <mxCell id="YIHOmkOXP7C3vBAiOU8p-36" value="" style="endArrow=classic;html=1;rounded=1;exitX=0.5;exitY=1;exitDx=0;exitDy=0;entryX=0.5;entryY=0;entryDx=0;entryDy=0;entryPerimeter=0;strokeColor=none;curved=0;" parent="YIHOmkOXP7C3vBAiOU8p-23" source="YIHOmkOXP7C3vBAiOU8p-28" target="YIHOmkOXP7C3vBAiOU8p-24" edge="1">
          <mxGeometry width="50" height="50" relative="1" as="geometry">
            <mxPoint x="485" y="270" as="sourcePoint" />
            <mxPoint x="535" y="220" as="targetPoint" />
            <Array as="points">
              <mxPoint x="180" y="250" />
              <mxPoint x="90" y="250" />
            </Array>
          </mxGeometry>
        </mxCell>
        <mxCell id="YIHOmkOXP7C3vBAiOU8p-37" value="" style="endArrow=classic;html=1;rounded=1;exitX=0.5;exitY=1;exitDx=0;exitDy=0;entryX=0.5;entryY=0;entryDx=0;entryDy=0;entryPerimeter=0;curved=0;" parent="YIHOmkOXP7C3vBAiOU8p-23" source="YIHOmkOXP7C3vBAiOU8p-28" target="YIHOmkOXP7C3vBAiOU8p-27" edge="1">
          <mxGeometry width="50" height="50" relative="1" as="geometry">
            <mxPoint x="485" y="230" as="sourcePoint" />
            <mxPoint x="535" y="180" as="targetPoint" />
            <Array as="points">
              <mxPoint x="180" y="250" />
              <mxPoint x="255" y="250" />
            </Array>
          </mxGeometry>
        </mxCell>
        <mxCell id="YIHOmkOXP7C3vBAiOU8p-38" value="" style="endArrow=classic;html=1;rounded=1;exitX=0.5;exitY=1;exitDx=0;exitDy=0;entryX=0;entryY=0.5;entryDx=0;entryDy=0;curved=0;" parent="YIHOmkOXP7C3vBAiOU8p-23" source="YIHOmkOXP7C3vBAiOU8p-28" target="YIHOmkOXP7C3vBAiOU8p-32" edge="1">
          <mxGeometry width="50" height="50" relative="1" as="geometry">
            <mxPoint x="257.5" y="210" as="sourcePoint" />
            <mxPoint x="535" y="180" as="targetPoint" />
            <Array as="points">
              <mxPoint x="180" y="250" />
              <mxPoint x="300" y="250" />
              <mxPoint x="300" y="220" />
              <mxPoint x="300" y="180" />
            </Array>
          </mxGeometry>
        </mxCell>
        <mxCell id="YIHOmkOXP7C3vBAiOU8p-39" value="api" style="text;html=1;align=center;verticalAlign=middle;whiteSpace=wrap;rounded=1;strokeColor=#d79b00;fillColor=#ffe6cc;" parent="YIHOmkOXP7C3vBAiOU8p-23" vertex="1">
          <mxGeometry x="120" width="60" height="30" as="geometry" />
        </mxCell>
        <mxCell id="YIHOmkOXP7C3vBAiOU8p-40" style="edgeStyle=orthogonalEdgeStyle;rounded=1;orthogonalLoop=1;jettySize=auto;html=1;exitX=0.5;exitY=1;exitDx=0;exitDy=0;entryX=0.5;entryY=0;entryDx=0;entryDy=0;entryPerimeter=0;curved=0;" parent="YIHOmkOXP7C3vBAiOU8p-23" source="YIHOmkOXP7C3vBAiOU8p-28" target="YIHOmkOXP7C3vBAiOU8p-24" edge="1">
          <mxGeometry relative="1" as="geometry">
            <Array as="points">
              <mxPoint x="180" y="250" />
              <mxPoint x="90" y="250" />
            </Array>
          </mxGeometry>
        </mxCell>
        <mxCell id="YIHOmkOXP7C3vBAiOU8p-41" value="MongoDB" style="shape=cylinder3;whiteSpace=wrap;html=1;boundedLbl=1;backgroundOutline=1;size=15;" parent="YIHOmkOXP7C3vBAiOU8p-23" vertex="1">
          <mxGeometry x="30" y="410" width="60" height="80" as="geometry" />
        </mxCell>
        <mxCell id="YIHOmkOXP7C3vBAiOU8p-42" value="shard1-2" style="text;html=1;align=center;verticalAlign=middle;whiteSpace=wrap;rounded=1;strokeColor=#d79b00;fillColor=#ffe6cc;" parent="YIHOmkOXP7C3vBAiOU8p-23" vertex="1">
          <mxGeometry x="30" y="490" width="60" height="30" as="geometry" />
        </mxCell>
        <mxCell id="YIHOmkOXP7C3vBAiOU8p-43" value="MongoDB" style="shape=cylinder3;whiteSpace=wrap;html=1;boundedLbl=1;backgroundOutline=1;size=15;" parent="YIHOmkOXP7C3vBAiOU8p-23" vertex="1">
          <mxGeometry x="90" y="410" width="60" height="80" as="geometry" />
        </mxCell>
        <mxCell id="YIHOmkOXP7C3vBAiOU8p-44" value="shard1-3" style="text;html=1;align=center;verticalAlign=middle;whiteSpace=wrap;rounded=1;strokeColor=#d79b00;fillColor=#ffe6cc;" parent="YIHOmkOXP7C3vBAiOU8p-23" vertex="1">
          <mxGeometry x="90" y="490" width="60" height="30" as="geometry" />
        </mxCell>
        <mxCell id="YIHOmkOXP7C3vBAiOU8p-49" value="MongoDB" style="shape=cylinder3;whiteSpace=wrap;html=1;boundedLbl=1;backgroundOutline=1;size=15;" parent="YIHOmkOXP7C3vBAiOU8p-23" vertex="1">
          <mxGeometry x="195" y="410" width="60" height="80" as="geometry" />
        </mxCell>
        <mxCell id="YIHOmkOXP7C3vBAiOU8p-50" value="MongoDB" style="shape=cylinder3;whiteSpace=wrap;html=1;boundedLbl=1;backgroundOutline=1;size=15;" parent="YIHOmkOXP7C3vBAiOU8p-23" vertex="1">
          <mxGeometry x="255" y="410" width="60" height="80" as="geometry" />
        </mxCell>
        <mxCell id="YIHOmkOXP7C3vBAiOU8p-51" value="shard2-2" style="text;html=1;align=center;verticalAlign=middle;whiteSpace=wrap;rounded=1;strokeColor=#d79b00;fillColor=#ffe6cc;" parent="YIHOmkOXP7C3vBAiOU8p-23" vertex="1">
          <mxGeometry x="195" y="490" width="60" height="30" as="geometry" />
        </mxCell>
        <mxCell id="YIHOmkOXP7C3vBAiOU8p-52" value="shard2-3" style="text;html=1;align=center;verticalAlign=middle;whiteSpace=wrap;rounded=1;strokeColor=#d79b00;fillColor=#ffe6cc;" parent="YIHOmkOXP7C3vBAiOU8p-23" vertex="1">
          <mxGeometry x="255" y="490" width="60" height="30" as="geometry" />
        </mxCell>
        <mxCell id="AXbUTmdRb_UvhCFr1R2s-18" value="" style="group" vertex="1" connectable="0" parent="1">
          <mxGeometry x="1060" y="110" width="580" height="580" as="geometry" />
        </mxCell>
        <mxCell id="AXbUTmdRb_UvhCFr1R2s-6" style="edgeStyle=orthogonalEdgeStyle;rounded=1;orthogonalLoop=1;jettySize=auto;html=1;exitX=1;exitY=0.5;exitDx=0;exitDy=0;exitPerimeter=0;entryX=0.5;entryY=1;entryDx=0;entryDy=0;curved=0;" edge="1" parent="AXbUTmdRb_UvhCFr1R2s-18" source="YIHOmkOXP7C3vBAiOU8p-54" target="AXbUTmdRb_UvhCFr1R2s-4">
          <mxGeometry relative="1" as="geometry">
            <Array as="points">
              <mxPoint x="170" y="400" />
              <mxPoint x="170" y="580" />
              <mxPoint x="380" y="580" />
              <mxPoint x="380" y="400" />
              <mxPoint x="520" y="400" />
            </Array>
          </mxGeometry>
        </mxCell>
        <mxCell id="YIHOmkOXP7C3vBAiOU8p-54" value="MongoDB" style="shape=cylinder3;whiteSpace=wrap;html=1;boundedLbl=1;backgroundOutline=1;size=15;" parent="AXbUTmdRb_UvhCFr1R2s-18" vertex="1">
          <mxGeometry x="60" y="360" width="60" height="80" as="geometry" />
        </mxCell>
        <mxCell id="AXbUTmdRb_UvhCFr1R2s-7" style="edgeStyle=orthogonalEdgeStyle;rounded=1;orthogonalLoop=1;jettySize=auto;html=1;exitX=0.5;exitY=1;exitDx=0;exitDy=0;entryX=0.5;entryY=0;entryDx=0;entryDy=0;curved=0;" edge="1" parent="AXbUTmdRb_UvhCFr1R2s-18" source="YIHOmkOXP7C3vBAiOU8p-56" target="YIHOmkOXP7C3vBAiOU8p-58">
          <mxGeometry relative="1" as="geometry">
            <Array as="points">
              <mxPoint x="180" y="125" />
              <mxPoint x="90" y="125" />
            </Array>
          </mxGeometry>
        </mxCell>
        <mxCell id="AXbUTmdRb_UvhCFr1R2s-8" style="edgeStyle=orthogonalEdgeStyle;rounded=1;orthogonalLoop=1;jettySize=auto;html=1;entryX=0.5;entryY=0;entryDx=0;entryDy=0;curved=0;" edge="1" parent="AXbUTmdRb_UvhCFr1R2s-18" target="AXbUTmdRb_UvhCFr1R2s-1">
          <mxGeometry relative="1" as="geometry">
            <mxPoint x="180" y="70" as="sourcePoint" />
            <mxPoint x="254.98000000000002" y="180" as="targetPoint" />
            <Array as="points">
              <mxPoint x="180" y="125" />
              <mxPoint x="255" y="125" />
            </Array>
          </mxGeometry>
        </mxCell>
        <mxCell id="YIHOmkOXP7C3vBAiOU8p-56" value="pymongo-api" style="rounded=1;whiteSpace=wrap;html=1;" parent="AXbUTmdRb_UvhCFr1R2s-18" vertex="1">
          <mxGeometry x="120" y="30" width="120" height="40" as="geometry" />
        </mxCell>
        <mxCell id="AXbUTmdRb_UvhCFr1R2s-5" style="edgeStyle=orthogonalEdgeStyle;rounded=1;orthogonalLoop=1;jettySize=auto;html=1;exitX=1;exitY=0.5;exitDx=0;exitDy=0;exitPerimeter=0;entryX=0.5;entryY=1;entryDx=0;entryDy=0;curved=0;" edge="1" parent="AXbUTmdRb_UvhCFr1R2s-18" source="YIHOmkOXP7C3vBAiOU8p-57" target="AXbUTmdRb_UvhCFr1R2s-4">
          <mxGeometry relative="1" as="geometry" />
        </mxCell>
        <mxCell id="YIHOmkOXP7C3vBAiOU8p-57" value="MongoDB" style="shape=cylinder3;whiteSpace=wrap;html=1;boundedLbl=1;backgroundOutline=1;size=15;" parent="AXbUTmdRb_UvhCFr1R2s-18" vertex="1">
          <mxGeometry x="225" y="360" width="60" height="80" as="geometry" />
        </mxCell>
        <mxCell id="AXbUTmdRb_UvhCFr1R2s-12" style="edgeStyle=orthogonalEdgeStyle;rounded=1;orthogonalLoop=1;jettySize=auto;html=1;exitX=0.5;exitY=1;exitDx=0;exitDy=0;entryX=0.5;entryY=0;entryDx=0;entryDy=0;entryPerimeter=0;curved=0;" edge="1" parent="AXbUTmdRb_UvhCFr1R2s-18" source="YIHOmkOXP7C3vBAiOU8p-58" target="YIHOmkOXP7C3vBAiOU8p-57">
          <mxGeometry relative="1" as="geometry">
            <mxPoint x="250" y="360" as="targetPoint" />
          </mxGeometry>
        </mxCell>
        <mxCell id="AXbUTmdRb_UvhCFr1R2s-14" style="edgeStyle=orthogonalEdgeStyle;rounded=1;orthogonalLoop=1;jettySize=auto;html=1;exitX=0.5;exitY=1;exitDx=0;exitDy=0;curved=0;" edge="1" parent="AXbUTmdRb_UvhCFr1R2s-18" source="YIHOmkOXP7C3vBAiOU8p-58" target="YIHOmkOXP7C3vBAiOU8p-62">
          <mxGeometry relative="1" as="geometry">
            <Array as="points">
              <mxPoint x="90" y="270" />
              <mxPoint x="380" y="270" />
            </Array>
          </mxGeometry>
        </mxCell>
        <mxCell id="AXbUTmdRb_UvhCFr1R2s-15" style="edgeStyle=orthogonalEdgeStyle;rounded=1;orthogonalLoop=1;jettySize=auto;html=1;exitX=0.5;exitY=1;exitDx=0;exitDy=0;entryX=0.5;entryY=0;entryDx=0;entryDy=0;curved=0;" edge="1" parent="AXbUTmdRb_UvhCFr1R2s-18" source="YIHOmkOXP7C3vBAiOU8p-58" target="AXbUTmdRb_UvhCFr1R2s-4">
          <mxGeometry relative="1" as="geometry">
            <Array as="points">
              <mxPoint x="90" y="270" />
              <mxPoint x="520" y="270" />
            </Array>
          </mxGeometry>
        </mxCell>
        <mxCell id="YIHOmkOXP7C3vBAiOU8p-58" value="MongoDB Router" style="rounded=1;whiteSpace=wrap;html=1;" parent="AXbUTmdRb_UvhCFr1R2s-18" vertex="1">
          <mxGeometry x="30" y="180" width="120" height="60" as="geometry" />
        </mxCell>
        <mxCell id="YIHOmkOXP7C3vBAiOU8p-59" value="configSrv-1" style="text;html=1;align=center;verticalAlign=middle;whiteSpace=wrap;rounded=1;strokeColor=#d79b00;fillColor=#ffe6cc;" parent="AXbUTmdRb_UvhCFr1R2s-18" vertex="1">
          <mxGeometry x="310" y="280" width="60" height="30" as="geometry" />
        </mxCell>
        <mxCell id="YIHOmkOXP7C3vBAiOU8p-60" value="shard1-1" style="text;html=1;align=center;verticalAlign=middle;whiteSpace=wrap;rounded=1;strokeColor=#d79b00;fillColor=#ffe6cc;" parent="AXbUTmdRb_UvhCFr1R2s-18" vertex="1">
          <mxGeometry y="340" width="60" height="30" as="geometry" />
        </mxCell>
        <mxCell id="YIHOmkOXP7C3vBAiOU8p-61" value="shard2-1" style="text;html=1;align=center;verticalAlign=middle;whiteSpace=wrap;rounded=1;strokeColor=#d79b00;fillColor=#ffe6cc;" parent="AXbUTmdRb_UvhCFr1R2s-18" vertex="1">
          <mxGeometry x="165" y="340" width="60" height="30" as="geometry" />
        </mxCell>
        <mxCell id="YIHOmkOXP7C3vBAiOU8p-62" value="MongoDB Config Server" style="rounded=1;whiteSpace=wrap;html=1;" parent="AXbUTmdRb_UvhCFr1R2s-18" vertex="1">
          <mxGeometry x="320" y="310" width="120" height="60" as="geometry" />
        </mxCell>
        <mxCell id="YIHOmkOXP7C3vBAiOU8p-63" value="router-1" style="text;html=1;align=center;verticalAlign=middle;whiteSpace=wrap;rounded=1;strokeColor=#d79b00;fillColor=#ffe6cc;" parent="AXbUTmdRb_UvhCFr1R2s-18" vertex="1">
          <mxGeometry x="20" y="150" width="60" height="30" as="geometry" />
        </mxCell>
        <mxCell id="YIHOmkOXP7C3vBAiOU8p-64" value="" style="endArrow=classic;html=1;rounded=1;exitX=1;exitY=0.5;exitDx=0;exitDy=0;exitPerimeter=0;entryX=0.5;entryY=1;entryDx=0;entryDy=0;curved=0;" parent="AXbUTmdRb_UvhCFr1R2s-18" source="YIHOmkOXP7C3vBAiOU8p-57" target="YIHOmkOXP7C3vBAiOU8p-62" edge="1">
          <mxGeometry width="50" height="50" relative="1" as="geometry">
            <mxPoint x="485" y="120" as="sourcePoint" />
            <mxPoint x="535" y="70" as="targetPoint" />
            <Array as="points">
              <mxPoint x="380" y="400" />
            </Array>
          </mxGeometry>
        </mxCell>
        <mxCell id="YIHOmkOXP7C3vBAiOU8p-65" value="" style="endArrow=classic;html=1;rounded=1;exitX=1;exitY=0.5;exitDx=0;exitDy=0;exitPerimeter=0;entryX=0.5;entryY=1;entryDx=0;entryDy=0;curved=0;" parent="AXbUTmdRb_UvhCFr1R2s-18" source="YIHOmkOXP7C3vBAiOU8p-54" target="YIHOmkOXP7C3vBAiOU8p-62" edge="1">
          <mxGeometry width="50" height="50" relative="1" as="geometry">
            <mxPoint x="355" y="410" as="sourcePoint" />
            <mxPoint x="485" y="250" as="targetPoint" />
            <Array as="points">
              <mxPoint x="170" y="400" />
              <mxPoint x="170" y="440" />
              <mxPoint x="170" y="580" />
              <mxPoint x="270" y="580" />
              <mxPoint x="380" y="580" />
              <mxPoint x="380" y="400" />
            </Array>
          </mxGeometry>
        </mxCell>
        <mxCell id="YIHOmkOXP7C3vBAiOU8p-69" value="api" style="text;html=1;align=center;verticalAlign=middle;whiteSpace=wrap;rounded=1;strokeColor=#d79b00;fillColor=#ffe6cc;" parent="AXbUTmdRb_UvhCFr1R2s-18" vertex="1">
          <mxGeometry x="120" width="60" height="30" as="geometry" />
        </mxCell>
        <mxCell id="YIHOmkOXP7C3vBAiOU8p-71" value="MongoDB" style="shape=cylinder3;whiteSpace=wrap;html=1;boundedLbl=1;backgroundOutline=1;size=15;" parent="AXbUTmdRb_UvhCFr1R2s-18" vertex="1">
          <mxGeometry x="30" y="440" width="60" height="80" as="geometry" />
        </mxCell>
        <mxCell id="YIHOmkOXP7C3vBAiOU8p-72" value="shard1-2" style="text;html=1;align=center;verticalAlign=middle;whiteSpace=wrap;rounded=1;strokeColor=#d79b00;fillColor=#ffe6cc;" parent="AXbUTmdRb_UvhCFr1R2s-18" vertex="1">
          <mxGeometry x="30" y="520" width="60" height="30" as="geometry" />
        </mxCell>
        <mxCell id="YIHOmkOXP7C3vBAiOU8p-73" value="MongoDB" style="shape=cylinder3;whiteSpace=wrap;html=1;boundedLbl=1;backgroundOutline=1;size=15;" parent="AXbUTmdRb_UvhCFr1R2s-18" vertex="1">
          <mxGeometry x="90" y="440" width="60" height="80" as="geometry" />
        </mxCell>
        <mxCell id="YIHOmkOXP7C3vBAiOU8p-74" value="shard1-3" style="text;html=1;align=center;verticalAlign=middle;whiteSpace=wrap;rounded=1;strokeColor=#d79b00;fillColor=#ffe6cc;" parent="AXbUTmdRb_UvhCFr1R2s-18" vertex="1">
          <mxGeometry x="90" y="520" width="60" height="30" as="geometry" />
        </mxCell>
        <mxCell id="YIHOmkOXP7C3vBAiOU8p-75" value="MongoDB" style="shape=cylinder3;whiteSpace=wrap;html=1;boundedLbl=1;backgroundOutline=1;size=15;" parent="AXbUTmdRb_UvhCFr1R2s-18" vertex="1">
          <mxGeometry x="195" y="440" width="60" height="80" as="geometry" />
        </mxCell>
        <mxCell id="YIHOmkOXP7C3vBAiOU8p-76" value="MongoDB" style="shape=cylinder3;whiteSpace=wrap;html=1;boundedLbl=1;backgroundOutline=1;size=15;" parent="AXbUTmdRb_UvhCFr1R2s-18" vertex="1">
          <mxGeometry x="255" y="440" width="60" height="80" as="geometry" />
        </mxCell>
        <mxCell id="YIHOmkOXP7C3vBAiOU8p-77" value="shard2-2" style="text;html=1;align=center;verticalAlign=middle;whiteSpace=wrap;rounded=1;strokeColor=#d79b00;fillColor=#ffe6cc;" parent="AXbUTmdRb_UvhCFr1R2s-18" vertex="1">
          <mxGeometry x="195" y="520" width="60" height="30" as="geometry" />
        </mxCell>
        <mxCell id="YIHOmkOXP7C3vBAiOU8p-78" value="shard2-3" style="text;html=1;align=center;verticalAlign=middle;whiteSpace=wrap;rounded=1;strokeColor=#d79b00;fillColor=#ffe6cc;" parent="AXbUTmdRb_UvhCFr1R2s-18" vertex="1">
          <mxGeometry x="255" y="520" width="60" height="30" as="geometry" />
        </mxCell>
        <mxCell id="YIHOmkOXP7C3vBAiOU8p-79" value="Redis" style="shape=cylinder3;whiteSpace=wrap;html=1;boundedLbl=1;backgroundOutline=1;size=15;" parent="AXbUTmdRb_UvhCFr1R2s-18" vertex="1">
          <mxGeometry x="370" y="160" width="60" height="80" as="geometry" />
        </mxCell>
        <mxCell id="YIHOmkOXP7C3vBAiOU8p-80" value="cache1-1" style="text;html=1;align=center;verticalAlign=middle;whiteSpace=wrap;rounded=1;strokeColor=#d79b00;fillColor=#ffe6cc;" parent="AXbUTmdRb_UvhCFr1R2s-18" vertex="1">
          <mxGeometry x="320" y="130" width="60" height="30" as="geometry" />
        </mxCell>
        <mxCell id="YIHOmkOXP7C3vBAiOU8p-82" value="" style="endArrow=classic;html=1;rounded=1;entryX=0.5;entryY=0;entryDx=0;entryDy=0;entryPerimeter=0;curved=0;exitX=0.5;exitY=1;exitDx=0;exitDy=0;" parent="AXbUTmdRb_UvhCFr1R2s-18" source="YIHOmkOXP7C3vBAiOU8p-56" target="YIHOmkOXP7C3vBAiOU8p-79" edge="1">
          <mxGeometry width="50" height="50" relative="1" as="geometry">
            <mxPoint x="180" y="100" as="sourcePoint" />
            <mxPoint x="410" y="170" as="targetPoint" />
            <Array as="points">
              <mxPoint x="400" y="120" />
            </Array>
          </mxGeometry>
        </mxCell>
        <mxCell id="AXbUTmdRb_UvhCFr1R2s-11" style="edgeStyle=orthogonalEdgeStyle;rounded=1;orthogonalLoop=1;jettySize=auto;html=1;exitX=0.5;exitY=1;exitDx=0;exitDy=0;curved=0;" edge="1" parent="AXbUTmdRb_UvhCFr1R2s-18" source="AXbUTmdRb_UvhCFr1R2s-1" target="YIHOmkOXP7C3vBAiOU8p-57">
          <mxGeometry relative="1" as="geometry" />
        </mxCell>
        <mxCell id="AXbUTmdRb_UvhCFr1R2s-16" style="edgeStyle=orthogonalEdgeStyle;rounded=1;orthogonalLoop=1;jettySize=auto;html=1;exitX=0.5;exitY=1;exitDx=0;exitDy=0;entryX=0.5;entryY=0;entryDx=0;entryDy=0;curved=0;" edge="1" parent="AXbUTmdRb_UvhCFr1R2s-18" source="AXbUTmdRb_UvhCFr1R2s-1" target="YIHOmkOXP7C3vBAiOU8p-62">
          <mxGeometry relative="1" as="geometry">
            <Array as="points">
              <mxPoint x="255" y="270" />
              <mxPoint x="380" y="270" />
            </Array>
          </mxGeometry>
        </mxCell>
        <mxCell id="AXbUTmdRb_UvhCFr1R2s-17" style="edgeStyle=orthogonalEdgeStyle;rounded=1;orthogonalLoop=1;jettySize=auto;html=1;exitX=0.5;exitY=1;exitDx=0;exitDy=0;entryX=0.5;entryY=0;entryDx=0;entryDy=0;curved=0;" edge="1" parent="AXbUTmdRb_UvhCFr1R2s-18" source="AXbUTmdRb_UvhCFr1R2s-1" target="AXbUTmdRb_UvhCFr1R2s-4">
          <mxGeometry relative="1" as="geometry">
            <Array as="points">
              <mxPoint x="255" y="270" />
              <mxPoint x="520" y="270" />
            </Array>
          </mxGeometry>
        </mxCell>
        <mxCell id="AXbUTmdRb_UvhCFr1R2s-1" value="MongoDB Router" style="rounded=1;whiteSpace=wrap;html=1;" vertex="1" parent="AXbUTmdRb_UvhCFr1R2s-18">
          <mxGeometry x="195" y="180" width="120" height="60" as="geometry" />
        </mxCell>
        <mxCell id="AXbUTmdRb_UvhCFr1R2s-2" value="router-2" style="text;html=1;align=center;verticalAlign=middle;whiteSpace=wrap;rounded=1;strokeColor=#d79b00;fillColor=#ffe6cc;" vertex="1" parent="AXbUTmdRb_UvhCFr1R2s-18">
          <mxGeometry x="184" y="150" width="60" height="30" as="geometry" />
        </mxCell>
        <mxCell id="AXbUTmdRb_UvhCFr1R2s-3" value="configSrv-2" style="text;html=1;align=center;verticalAlign=middle;whiteSpace=wrap;rounded=1;strokeColor=#d79b00;fillColor=#ffe6cc;" vertex="1" parent="AXbUTmdRb_UvhCFr1R2s-18">
          <mxGeometry x="450" y="280" width="60" height="30" as="geometry" />
        </mxCell>
        <mxCell id="AXbUTmdRb_UvhCFr1R2s-4" value="MongoDB Config Server" style="rounded=1;whiteSpace=wrap;html=1;" vertex="1" parent="AXbUTmdRb_UvhCFr1R2s-18">
          <mxGeometry x="460" y="310" width="120" height="60" as="geometry" />
        </mxCell>
        <mxCell id="AXbUTmdRb_UvhCFr1R2s-10" style="edgeStyle=orthogonalEdgeStyle;rounded=1;orthogonalLoop=1;jettySize=auto;html=1;exitX=0.5;exitY=1;exitDx=0;exitDy=0;entryX=0.5;entryY=0;entryDx=0;entryDy=0;entryPerimeter=0;curved=0;" edge="1" parent="AXbUTmdRb_UvhCFr1R2s-18" source="YIHOmkOXP7C3vBAiOU8p-58" target="YIHOmkOXP7C3vBAiOU8p-54">
          <mxGeometry relative="1" as="geometry" />
        </mxCell>
        <mxCell id="AXbUTmdRb_UvhCFr1R2s-13" style="edgeStyle=orthogonalEdgeStyle;rounded=1;orthogonalLoop=1;jettySize=auto;html=1;exitX=0.5;exitY=1;exitDx=0;exitDy=0;entryX=0.5;entryY=0;entryDx=0;entryDy=0;entryPerimeter=0;curved=0;" edge="1" parent="AXbUTmdRb_UvhCFr1R2s-18" source="AXbUTmdRb_UvhCFr1R2s-1" target="YIHOmkOXP7C3vBAiOU8p-54">
          <mxGeometry relative="1" as="geometry" />
        </mxCell>
        <mxCell id="AXbUTmdRb_UvhCFr1R2s-134" style="edgeStyle=orthogonalEdgeStyle;rounded=0;orthogonalLoop=1;jettySize=auto;html=1;dashed=1;dashPattern=8 8;exitX=1;exitY=0.5;exitDx=0;exitDy=0;entryX=0;entryY=0.5;entryDx=0;entryDy=0;" edge="1" parent="1" source="znPcpwRS4Ozd1VktsHSt-14" target="znPcpwRS4Ozd1VktsHSt-20">
          <mxGeometry relative="1" as="geometry">
            <mxPoint x="830" y="80" as="sourcePoint" />
            <mxPoint x="1360" y="70" as="targetPoint" />
          </mxGeometry>
        </mxCell>
        <mxCell id="AXbUTmdRb_UvhCFr1R2s-135" style="edgeStyle=orthogonalEdgeStyle;rounded=0;orthogonalLoop=1;jettySize=auto;html=1;dashed=1;dashPattern=8 8;exitX=1;exitY=0.5;exitDx=0;exitDy=0;entryX=0;entryY=0.5;entryDx=0;entryDy=0;" edge="1" parent="1" source="znPcpwRS4Ozd1VktsHSt-20" target="znPcpwRS4Ozd1VktsHSt-21">
          <mxGeometry relative="1" as="geometry">
            <mxPoint x="1320" y="80" as="sourcePoint" />
            <mxPoint x="2310" y="70" as="targetPoint" />
          </mxGeometry>
        </mxCell>
        <mxCell id="AXbUTmdRb_UvhCFr1R2s-147" value="" style="group" vertex="1" connectable="0" parent="1">
          <mxGeometry x="1660" y="120" width="580" height="690" as="geometry" />
        </mxCell>
        <mxCell id="AXbUTmdRb_UvhCFr1R2s-148" style="edgeStyle=orthogonalEdgeStyle;rounded=1;orthogonalLoop=1;jettySize=auto;html=1;exitX=1;exitY=0.5;exitDx=0;exitDy=0;exitPerimeter=0;entryX=0.5;entryY=1;entryDx=0;entryDy=0;curved=0;" edge="1" parent="AXbUTmdRb_UvhCFr1R2s-147" source="AXbUTmdRb_UvhCFr1R2s-149" target="AXbUTmdRb_UvhCFr1R2s-188">
          <mxGeometry relative="1" as="geometry">
            <Array as="points">
              <mxPoint x="170" y="530" />
              <mxPoint x="170" y="690" />
              <mxPoint x="380" y="690" />
              <mxPoint x="380" y="530" />
              <mxPoint x="520" y="530" />
            </Array>
          </mxGeometry>
        </mxCell>
        <mxCell id="AXbUTmdRb_UvhCFr1R2s-149" value="MongoDB" style="shape=cylinder3;whiteSpace=wrap;html=1;boundedLbl=1;backgroundOutline=1;size=15;container=0;" vertex="1" parent="AXbUTmdRb_UvhCFr1R2s-147">
          <mxGeometry x="60" y="490" width="60" height="80" as="geometry" />
        </mxCell>
        <mxCell id="AXbUTmdRb_UvhCFr1R2s-150" style="edgeStyle=orthogonalEdgeStyle;rounded=0;orthogonalLoop=1;jettySize=auto;html=1;entryX=0.5;entryY=0;entryDx=0;entryDy=0;" edge="1" parent="AXbUTmdRb_UvhCFr1R2s-147" source="AXbUTmdRb_UvhCFr1R2s-154" target="AXbUTmdRb_UvhCFr1R2s-161">
          <mxGeometry relative="1" as="geometry" />
        </mxCell>
        <mxCell id="AXbUTmdRb_UvhCFr1R2s-151" style="edgeStyle=orthogonalEdgeStyle;rounded=1;orthogonalLoop=1;jettySize=auto;html=1;exitX=0.5;exitY=1;exitDx=0;exitDy=0;entryX=0.5;entryY=0;entryDx=0;entryDy=0;curved=0;" edge="1" parent="AXbUTmdRb_UvhCFr1R2s-147" source="AXbUTmdRb_UvhCFr1R2s-154" target="AXbUTmdRb_UvhCFr1R2s-185">
          <mxGeometry relative="1" as="geometry" />
        </mxCell>
        <mxCell id="AXbUTmdRb_UvhCFr1R2s-152" style="edgeStyle=orthogonalEdgeStyle;rounded=1;orthogonalLoop=1;jettySize=auto;html=1;exitX=0.5;exitY=1;exitDx=0;exitDy=0;curved=0;entryX=0.5;entryY=0;entryDx=0;entryDy=0;entryPerimeter=0;" edge="1" parent="AXbUTmdRb_UvhCFr1R2s-147" source="AXbUTmdRb_UvhCFr1R2s-154" target="AXbUTmdRb_UvhCFr1R2s-179">
          <mxGeometry relative="1" as="geometry">
            <mxPoint x="400" y="290" as="targetPoint" />
            <Array as="points">
              <mxPoint x="90" y="240" />
              <mxPoint x="470" y="240" />
            </Array>
          </mxGeometry>
        </mxCell>
        <mxCell id="AXbUTmdRb_UvhCFr1R2s-153" style="edgeStyle=orthogonalEdgeStyle;rounded=1;orthogonalLoop=1;jettySize=auto;html=1;curved=0;entryX=0.5;entryY=1;entryDx=0;entryDy=0;" edge="1" parent="AXbUTmdRb_UvhCFr1R2s-147" source="AXbUTmdRb_UvhCFr1R2s-154" target="AXbUTmdRb_UvhCFr1R2s-201">
          <mxGeometry relative="1" as="geometry">
            <mxPoint x="400" y="70" as="targetPoint" />
            <Array as="points">
              <mxPoint x="90" y="220" />
              <mxPoint x="400" y="220" />
            </Array>
          </mxGeometry>
        </mxCell>
        <mxCell id="AXbUTmdRb_UvhCFr1R2s-154" value="pymongo-api" style="rounded=1;whiteSpace=wrap;html=1;container=0;" vertex="1" parent="AXbUTmdRb_UvhCFr1R2s-147">
          <mxGeometry x="30" y="160" width="120" height="40" as="geometry" />
        </mxCell>
        <mxCell id="AXbUTmdRb_UvhCFr1R2s-155" style="edgeStyle=orthogonalEdgeStyle;rounded=1;orthogonalLoop=1;jettySize=auto;html=1;exitX=1;exitY=0.5;exitDx=0;exitDy=0;exitPerimeter=0;entryX=0.5;entryY=1;entryDx=0;entryDy=0;curved=0;" edge="1" parent="AXbUTmdRb_UvhCFr1R2s-147" source="AXbUTmdRb_UvhCFr1R2s-156" target="AXbUTmdRb_UvhCFr1R2s-188">
          <mxGeometry relative="1" as="geometry" />
        </mxCell>
        <mxCell id="AXbUTmdRb_UvhCFr1R2s-156" value="MongoDB" style="shape=cylinder3;whiteSpace=wrap;html=1;boundedLbl=1;backgroundOutline=1;size=15;container=0;" vertex="1" parent="AXbUTmdRb_UvhCFr1R2s-147">
          <mxGeometry x="225" y="490" width="60" height="80" as="geometry" />
        </mxCell>
        <mxCell id="AXbUTmdRb_UvhCFr1R2s-157" style="edgeStyle=orthogonalEdgeStyle;rounded=1;orthogonalLoop=1;jettySize=auto;html=1;exitX=0.5;exitY=1;exitDx=0;exitDy=0;entryX=0.5;entryY=0;entryDx=0;entryDy=0;entryPerimeter=0;curved=0;" edge="1" parent="AXbUTmdRb_UvhCFr1R2s-147" source="AXbUTmdRb_UvhCFr1R2s-161" target="AXbUTmdRb_UvhCFr1R2s-156">
          <mxGeometry relative="1" as="geometry">
            <mxPoint x="250" y="490" as="targetPoint" />
          </mxGeometry>
        </mxCell>
        <mxCell id="AXbUTmdRb_UvhCFr1R2s-158" style="edgeStyle=orthogonalEdgeStyle;rounded=1;orthogonalLoop=1;jettySize=auto;html=1;exitX=0.5;exitY=1;exitDx=0;exitDy=0;curved=0;" edge="1" parent="AXbUTmdRb_UvhCFr1R2s-147" source="AXbUTmdRb_UvhCFr1R2s-161" target="AXbUTmdRb_UvhCFr1R2s-165">
          <mxGeometry relative="1" as="geometry">
            <Array as="points">
              <mxPoint x="90" y="400" />
              <mxPoint x="380" y="400" />
            </Array>
          </mxGeometry>
        </mxCell>
        <mxCell id="AXbUTmdRb_UvhCFr1R2s-159" style="edgeStyle=orthogonalEdgeStyle;rounded=1;orthogonalLoop=1;jettySize=auto;html=1;exitX=0.5;exitY=1;exitDx=0;exitDy=0;entryX=0.5;entryY=0;entryDx=0;entryDy=0;curved=0;" edge="1" parent="AXbUTmdRb_UvhCFr1R2s-147" source="AXbUTmdRb_UvhCFr1R2s-161" target="AXbUTmdRb_UvhCFr1R2s-188">
          <mxGeometry relative="1" as="geometry">
            <Array as="points">
              <mxPoint x="90" y="400" />
              <mxPoint x="520" y="400" />
            </Array>
          </mxGeometry>
        </mxCell>
        <mxCell id="AXbUTmdRb_UvhCFr1R2s-160" style="edgeStyle=orthogonalEdgeStyle;rounded=1;orthogonalLoop=1;jettySize=auto;html=1;entryX=0.5;entryY=1;entryDx=0;entryDy=0;fontFamily=Helvetica;fontSize=12;fontColor=default;curved=0;" edge="1" parent="AXbUTmdRb_UvhCFr1R2s-147" source="AXbUTmdRb_UvhCFr1R2s-161" target="AXbUTmdRb_UvhCFr1R2s-201">
          <mxGeometry relative="1" as="geometry" />
        </mxCell>
        <mxCell id="AXbUTmdRb_UvhCFr1R2s-161" value="MongoDB Router" style="rounded=1;whiteSpace=wrap;html=1;container=0;" vertex="1" parent="AXbUTmdRb_UvhCFr1R2s-147">
          <mxGeometry x="30" y="310" width="120" height="60" as="geometry" />
        </mxCell>
        <mxCell id="AXbUTmdRb_UvhCFr1R2s-162" value="configSrv-1" style="text;html=1;align=center;verticalAlign=middle;whiteSpace=wrap;rounded=1;strokeColor=#d79b00;fillColor=#ffe6cc;container=0;" vertex="1" parent="AXbUTmdRb_UvhCFr1R2s-147">
          <mxGeometry x="310" y="410" width="60" height="30" as="geometry" />
        </mxCell>
        <mxCell id="AXbUTmdRb_UvhCFr1R2s-163" value="shard1-1" style="text;html=1;align=center;verticalAlign=middle;whiteSpace=wrap;rounded=1;strokeColor=#d79b00;fillColor=#ffe6cc;container=0;" vertex="1" parent="AXbUTmdRb_UvhCFr1R2s-147">
          <mxGeometry y="470" width="60" height="30" as="geometry" />
        </mxCell>
        <mxCell id="AXbUTmdRb_UvhCFr1R2s-164" value="shard2-1" style="text;html=1;align=center;verticalAlign=middle;whiteSpace=wrap;rounded=1;strokeColor=#d79b00;fillColor=#ffe6cc;container=0;" vertex="1" parent="AXbUTmdRb_UvhCFr1R2s-147">
          <mxGeometry x="165" y="470" width="60" height="30" as="geometry" />
        </mxCell>
        <mxCell id="AXbUTmdRb_UvhCFr1R2s-165" value="MongoDB Config Server" style="rounded=1;whiteSpace=wrap;html=1;container=0;" vertex="1" parent="AXbUTmdRb_UvhCFr1R2s-147">
          <mxGeometry x="320" y="440" width="120" height="60" as="geometry" />
        </mxCell>
        <mxCell id="AXbUTmdRb_UvhCFr1R2s-166" value="router-1" style="text;html=1;align=center;verticalAlign=middle;whiteSpace=wrap;rounded=1;strokeColor=#d79b00;fillColor=#ffe6cc;container=0;" vertex="1" parent="AXbUTmdRb_UvhCFr1R2s-147">
          <mxGeometry x="20" y="280" width="60" height="30" as="geometry" />
        </mxCell>
        <mxCell id="AXbUTmdRb_UvhCFr1R2s-167" value="" style="endArrow=classic;html=1;rounded=1;exitX=1;exitY=0.5;exitDx=0;exitDy=0;exitPerimeter=0;entryX=0.5;entryY=1;entryDx=0;entryDy=0;curved=0;" edge="1" parent="AXbUTmdRb_UvhCFr1R2s-147" source="AXbUTmdRb_UvhCFr1R2s-156" target="AXbUTmdRb_UvhCFr1R2s-165">
          <mxGeometry width="50" height="50" relative="1" as="geometry">
            <mxPoint x="485" y="250" as="sourcePoint" />
            <mxPoint x="535" y="200" as="targetPoint" />
            <Array as="points">
              <mxPoint x="380" y="530" />
            </Array>
          </mxGeometry>
        </mxCell>
        <mxCell id="AXbUTmdRb_UvhCFr1R2s-168" value="" style="endArrow=classic;html=1;rounded=1;exitX=1;exitY=0.5;exitDx=0;exitDy=0;exitPerimeter=0;entryX=0.5;entryY=1;entryDx=0;entryDy=0;curved=0;" edge="1" parent="AXbUTmdRb_UvhCFr1R2s-147" source="AXbUTmdRb_UvhCFr1R2s-149" target="AXbUTmdRb_UvhCFr1R2s-165">
          <mxGeometry width="50" height="50" relative="1" as="geometry">
            <mxPoint x="355" y="540" as="sourcePoint" />
            <mxPoint x="485" y="380" as="targetPoint" />
            <Array as="points">
              <mxPoint x="170" y="530" />
              <mxPoint x="170" y="570" />
              <mxPoint x="170" y="690" />
              <mxPoint x="270" y="690" />
              <mxPoint x="380" y="690" />
              <mxPoint x="380" y="530" />
            </Array>
          </mxGeometry>
        </mxCell>
        <mxCell id="AXbUTmdRb_UvhCFr1R2s-169" value="api" style="text;html=1;align=center;verticalAlign=middle;whiteSpace=wrap;rounded=1;strokeColor=#d79b00;fillColor=#ffe6cc;container=0;" vertex="1" parent="AXbUTmdRb_UvhCFr1R2s-147">
          <mxGeometry x="20" y="130" width="60" height="30" as="geometry" />
        </mxCell>
        <mxCell id="AXbUTmdRb_UvhCFr1R2s-170" value="MongoDB" style="shape=cylinder3;whiteSpace=wrap;html=1;boundedLbl=1;backgroundOutline=1;size=15;container=0;" vertex="1" parent="AXbUTmdRb_UvhCFr1R2s-147">
          <mxGeometry x="30" y="570" width="60" height="80" as="geometry" />
        </mxCell>
        <mxCell id="AXbUTmdRb_UvhCFr1R2s-171" value="shard1-2" style="text;html=1;align=center;verticalAlign=middle;whiteSpace=wrap;rounded=1;strokeColor=#d79b00;fillColor=#ffe6cc;container=0;" vertex="1" parent="AXbUTmdRb_UvhCFr1R2s-147">
          <mxGeometry x="30" y="650" width="60" height="30" as="geometry" />
        </mxCell>
        <mxCell id="AXbUTmdRb_UvhCFr1R2s-172" value="MongoDB" style="shape=cylinder3;whiteSpace=wrap;html=1;boundedLbl=1;backgroundOutline=1;size=15;container=0;" vertex="1" parent="AXbUTmdRb_UvhCFr1R2s-147">
          <mxGeometry x="90" y="570" width="60" height="80" as="geometry" />
        </mxCell>
        <mxCell id="AXbUTmdRb_UvhCFr1R2s-173" value="shard1-3" style="text;html=1;align=center;verticalAlign=middle;whiteSpace=wrap;rounded=1;strokeColor=#d79b00;fillColor=#ffe6cc;container=0;" vertex="1" parent="AXbUTmdRb_UvhCFr1R2s-147">
          <mxGeometry x="90" y="650" width="60" height="30" as="geometry" />
        </mxCell>
        <mxCell id="AXbUTmdRb_UvhCFr1R2s-174" value="MongoDB" style="shape=cylinder3;whiteSpace=wrap;html=1;boundedLbl=1;backgroundOutline=1;size=15;container=0;" vertex="1" parent="AXbUTmdRb_UvhCFr1R2s-147">
          <mxGeometry x="195" y="570" width="60" height="80" as="geometry" />
        </mxCell>
        <mxCell id="AXbUTmdRb_UvhCFr1R2s-175" value="MongoDB" style="shape=cylinder3;whiteSpace=wrap;html=1;boundedLbl=1;backgroundOutline=1;size=15;container=0;" vertex="1" parent="AXbUTmdRb_UvhCFr1R2s-147">
          <mxGeometry x="255" y="570" width="60" height="80" as="geometry" />
        </mxCell>
        <mxCell id="AXbUTmdRb_UvhCFr1R2s-176" value="shard2-2" style="text;html=1;align=center;verticalAlign=middle;whiteSpace=wrap;rounded=1;strokeColor=#d79b00;fillColor=#ffe6cc;container=0;" vertex="1" parent="AXbUTmdRb_UvhCFr1R2s-147">
          <mxGeometry x="195" y="650" width="60" height="30" as="geometry" />
        </mxCell>
        <mxCell id="AXbUTmdRb_UvhCFr1R2s-177" value="shard2-3" style="text;html=1;align=center;verticalAlign=middle;whiteSpace=wrap;rounded=1;strokeColor=#d79b00;fillColor=#ffe6cc;container=0;" vertex="1" parent="AXbUTmdRb_UvhCFr1R2s-147">
          <mxGeometry x="255" y="650" width="60" height="30" as="geometry" />
        </mxCell>
        <mxCell id="AXbUTmdRb_UvhCFr1R2s-178" style="edgeStyle=orthogonalEdgeStyle;rounded=1;orthogonalLoop=1;jettySize=auto;html=1;exitX=1;exitY=0.5;exitDx=0;exitDy=0;exitPerimeter=0;entryX=0.5;entryY=1;entryDx=0;entryDy=0;fontFamily=Helvetica;fontSize=12;fontColor=default;curved=0;" edge="1" parent="AXbUTmdRb_UvhCFr1R2s-147" source="AXbUTmdRb_UvhCFr1R2s-179" target="AXbUTmdRb_UvhCFr1R2s-201">
          <mxGeometry relative="1" as="geometry" />
        </mxCell>
        <mxCell id="AXbUTmdRb_UvhCFr1R2s-179" value="Redis" style="shape=cylinder3;whiteSpace=wrap;html=1;boundedLbl=1;backgroundOutline=1;size=15;container=0;" vertex="1" parent="AXbUTmdRb_UvhCFr1R2s-147">
          <mxGeometry x="440" y="290" width="60" height="80" as="geometry" />
        </mxCell>
        <mxCell id="AXbUTmdRb_UvhCFr1R2s-180" value="cache1-1" style="text;html=1;align=center;verticalAlign=middle;whiteSpace=wrap;rounded=1;strokeColor=#d79b00;fillColor=#ffe6cc;container=0;" vertex="1" parent="AXbUTmdRb_UvhCFr1R2s-147">
          <mxGeometry x="320" y="260" width="60" height="30" as="geometry" />
        </mxCell>
        <mxCell id="AXbUTmdRb_UvhCFr1R2s-181" style="edgeStyle=orthogonalEdgeStyle;rounded=1;orthogonalLoop=1;jettySize=auto;html=1;exitX=0.5;exitY=1;exitDx=0;exitDy=0;curved=0;" edge="1" parent="AXbUTmdRb_UvhCFr1R2s-147" source="AXbUTmdRb_UvhCFr1R2s-185" target="AXbUTmdRb_UvhCFr1R2s-156">
          <mxGeometry relative="1" as="geometry" />
        </mxCell>
        <mxCell id="AXbUTmdRb_UvhCFr1R2s-182" style="edgeStyle=orthogonalEdgeStyle;rounded=1;orthogonalLoop=1;jettySize=auto;html=1;exitX=0.5;exitY=1;exitDx=0;exitDy=0;entryX=0.5;entryY=0;entryDx=0;entryDy=0;curved=0;" edge="1" parent="AXbUTmdRb_UvhCFr1R2s-147" source="AXbUTmdRb_UvhCFr1R2s-185" target="AXbUTmdRb_UvhCFr1R2s-165">
          <mxGeometry relative="1" as="geometry">
            <Array as="points">
              <mxPoint x="255" y="400" />
              <mxPoint x="380" y="400" />
            </Array>
          </mxGeometry>
        </mxCell>
        <mxCell id="AXbUTmdRb_UvhCFr1R2s-183" style="edgeStyle=orthogonalEdgeStyle;rounded=1;orthogonalLoop=1;jettySize=auto;html=1;exitX=0.5;exitY=1;exitDx=0;exitDy=0;entryX=0.5;entryY=0;entryDx=0;entryDy=0;curved=0;" edge="1" parent="AXbUTmdRb_UvhCFr1R2s-147" source="AXbUTmdRb_UvhCFr1R2s-185" target="AXbUTmdRb_UvhCFr1R2s-188">
          <mxGeometry relative="1" as="geometry">
            <Array as="points">
              <mxPoint x="255" y="400" />
              <mxPoint x="520" y="400" />
            </Array>
          </mxGeometry>
        </mxCell>
        <mxCell id="AXbUTmdRb_UvhCFr1R2s-184" style="edgeStyle=orthogonalEdgeStyle;rounded=1;orthogonalLoop=1;jettySize=auto;html=1;exitX=1;exitY=0.5;exitDx=0;exitDy=0;fontFamily=Helvetica;fontSize=12;fontColor=default;curved=0;" edge="1" parent="AXbUTmdRb_UvhCFr1R2s-147" source="AXbUTmdRb_UvhCFr1R2s-185">
          <mxGeometry relative="1" as="geometry">
            <mxPoint x="400" y="70" as="targetPoint" />
          </mxGeometry>
        </mxCell>
        <mxCell id="AXbUTmdRb_UvhCFr1R2s-185" value="MongoDB Router" style="rounded=1;whiteSpace=wrap;html=1;container=0;" vertex="1" parent="AXbUTmdRb_UvhCFr1R2s-147">
          <mxGeometry x="195" y="310" width="120" height="60" as="geometry" />
        </mxCell>
        <mxCell id="AXbUTmdRb_UvhCFr1R2s-186" value="router-2" style="text;html=1;align=center;verticalAlign=middle;whiteSpace=wrap;rounded=1;strokeColor=#d79b00;fillColor=#ffe6cc;container=0;" vertex="1" parent="AXbUTmdRb_UvhCFr1R2s-147">
          <mxGeometry x="184" y="280" width="60" height="30" as="geometry" />
        </mxCell>
        <mxCell id="AXbUTmdRb_UvhCFr1R2s-187" value="configSrv-2" style="text;html=1;align=center;verticalAlign=middle;whiteSpace=wrap;rounded=1;strokeColor=#d79b00;fillColor=#ffe6cc;container=0;" vertex="1" parent="AXbUTmdRb_UvhCFr1R2s-147">
          <mxGeometry x="450" y="410" width="60" height="30" as="geometry" />
        </mxCell>
        <mxCell id="AXbUTmdRb_UvhCFr1R2s-188" value="MongoDB Config Server" style="rounded=1;whiteSpace=wrap;html=1;container=0;" vertex="1" parent="AXbUTmdRb_UvhCFr1R2s-147">
          <mxGeometry x="460" y="440" width="120" height="60" as="geometry" />
        </mxCell>
        <mxCell id="AXbUTmdRb_UvhCFr1R2s-189" style="edgeStyle=orthogonalEdgeStyle;rounded=1;orthogonalLoop=1;jettySize=auto;html=1;exitX=0.5;exitY=1;exitDx=0;exitDy=0;entryX=0.5;entryY=0;entryDx=0;entryDy=0;entryPerimeter=0;curved=0;" edge="1" parent="AXbUTmdRb_UvhCFr1R2s-147" source="AXbUTmdRb_UvhCFr1R2s-161" target="AXbUTmdRb_UvhCFr1R2s-149">
          <mxGeometry relative="1" as="geometry" />
        </mxCell>
        <mxCell id="AXbUTmdRb_UvhCFr1R2s-190" style="edgeStyle=orthogonalEdgeStyle;rounded=1;orthogonalLoop=1;jettySize=auto;html=1;exitX=0.5;exitY=1;exitDx=0;exitDy=0;entryX=0.5;entryY=0;entryDx=0;entryDy=0;entryPerimeter=0;curved=0;" edge="1" parent="AXbUTmdRb_UvhCFr1R2s-147" source="AXbUTmdRb_UvhCFr1R2s-185" target="AXbUTmdRb_UvhCFr1R2s-149">
          <mxGeometry relative="1" as="geometry" />
        </mxCell>
        <mxCell id="AXbUTmdRb_UvhCFr1R2s-191" style="edgeStyle=orthogonalEdgeStyle;rounded=1;orthogonalLoop=1;jettySize=auto;html=1;exitX=0.5;exitY=1;exitDx=0;exitDy=0;entryX=0.5;entryY=0;entryDx=0;entryDy=0;curved=0;" edge="1" parent="AXbUTmdRb_UvhCFr1R2s-147" source="AXbUTmdRb_UvhCFr1R2s-193" target="AXbUTmdRb_UvhCFr1R2s-161">
          <mxGeometry relative="1" as="geometry" />
        </mxCell>
        <mxCell id="AXbUTmdRb_UvhCFr1R2s-192" style="edgeStyle=orthogonalEdgeStyle;rounded=1;orthogonalLoop=1;jettySize=auto;html=1;exitX=1;exitY=0.5;exitDx=0;exitDy=0;entryX=0.5;entryY=1;entryDx=0;entryDy=0;curved=0;" edge="1" parent="AXbUTmdRb_UvhCFr1R2s-147" source="AXbUTmdRb_UvhCFr1R2s-193" target="AXbUTmdRb_UvhCFr1R2s-201">
          <mxGeometry relative="1" as="geometry" />
        </mxCell>
        <mxCell id="AXbUTmdRb_UvhCFr1R2s-193" value="pymongo-api" style="rounded=1;whiteSpace=wrap;html=1;container=0;" vertex="1" parent="AXbUTmdRb_UvhCFr1R2s-147">
          <mxGeometry x="195" y="160" width="120" height="40" as="geometry" />
        </mxCell>
        <mxCell id="AXbUTmdRb_UvhCFr1R2s-194" value="api" style="text;html=1;align=center;verticalAlign=middle;whiteSpace=wrap;rounded=1;strokeColor=#d79b00;fillColor=#ffe6cc;container=0;" vertex="1" parent="AXbUTmdRb_UvhCFr1R2s-147">
          <mxGeometry x="180" y="130" width="60" height="30" as="geometry" />
        </mxCell>
        <mxCell id="AXbUTmdRb_UvhCFr1R2s-195" style="edgeStyle=orthogonalEdgeStyle;rounded=1;orthogonalLoop=1;jettySize=auto;html=1;exitX=0.5;exitY=1;exitDx=0;exitDy=0;entryX=0.5;entryY=0;entryDx=0;entryDy=0;curved=0;" edge="1" parent="AXbUTmdRb_UvhCFr1R2s-147" source="AXbUTmdRb_UvhCFr1R2s-193" target="AXbUTmdRb_UvhCFr1R2s-185">
          <mxGeometry relative="1" as="geometry" />
        </mxCell>
        <mxCell id="AXbUTmdRb_UvhCFr1R2s-196" style="edgeStyle=orthogonalEdgeStyle;rounded=1;orthogonalLoop=1;jettySize=auto;html=1;exitX=0.5;exitY=1;exitDx=0;exitDy=0;entryX=0.5;entryY=0;entryDx=0;entryDy=0;entryPerimeter=0;curved=0;" edge="1" parent="AXbUTmdRb_UvhCFr1R2s-147" source="AXbUTmdRb_UvhCFr1R2s-193" target="AXbUTmdRb_UvhCFr1R2s-179">
          <mxGeometry relative="1" as="geometry">
            <Array as="points">
              <mxPoint x="255" y="240" />
              <mxPoint x="470" y="240" />
            </Array>
          </mxGeometry>
        </mxCell>
        <mxCell id="AXbUTmdRb_UvhCFr1R2s-197" style="edgeStyle=orthogonalEdgeStyle;rounded=1;orthogonalLoop=1;jettySize=auto;html=1;exitX=0.5;exitY=1;exitDx=0;exitDy=0;entryX=0.5;entryY=0;entryDx=0;entryDy=0;curved=0;" edge="1" parent="AXbUTmdRb_UvhCFr1R2s-147" source="AXbUTmdRb_UvhCFr1R2s-200" target="AXbUTmdRb_UvhCFr1R2s-154">
          <mxGeometry relative="1" as="geometry" />
        </mxCell>
        <mxCell id="AXbUTmdRb_UvhCFr1R2s-198" style="edgeStyle=orthogonalEdgeStyle;rounded=1;orthogonalLoop=1;jettySize=auto;html=1;exitX=0.5;exitY=1;exitDx=0;exitDy=0;entryX=0.5;entryY=0;entryDx=0;entryDy=0;curved=0;" edge="1" parent="AXbUTmdRb_UvhCFr1R2s-147" source="AXbUTmdRb_UvhCFr1R2s-200" target="AXbUTmdRb_UvhCFr1R2s-193">
          <mxGeometry relative="1" as="geometry" />
        </mxCell>
        <mxCell id="AXbUTmdRb_UvhCFr1R2s-199" style="edgeStyle=orthogonalEdgeStyle;rounded=1;orthogonalLoop=1;jettySize=auto;html=1;exitX=1;exitY=0.5;exitDx=0;exitDy=0;entryX=0;entryY=0.5;entryDx=0;entryDy=0;curved=0;" edge="1" parent="AXbUTmdRb_UvhCFr1R2s-147" source="AXbUTmdRb_UvhCFr1R2s-200" target="AXbUTmdRb_UvhCFr1R2s-201">
          <mxGeometry relative="1" as="geometry" />
        </mxCell>
        <mxCell id="AXbUTmdRb_UvhCFr1R2s-200" value="API Gateway" style="rounded=1;whiteSpace=wrap;html=1;container=0;" vertex="1" parent="AXbUTmdRb_UvhCFr1R2s-147">
          <mxGeometry x="105" y="30" width="120" height="40" as="geometry" />
        </mxCell>
        <mxCell id="AXbUTmdRb_UvhCFr1R2s-201" value="Consul" style="rounded=1;whiteSpace=wrap;html=1;container=0;" vertex="1" parent="AXbUTmdRb_UvhCFr1R2s-147">
          <mxGeometry x="340" y="30" width="120" height="40" as="geometry" />
        </mxCell>
        <mxCell id="AXbUTmdRb_UvhCFr1R2s-202" value="api" style="text;html=1;align=center;verticalAlign=middle;whiteSpace=wrap;rounded=1;strokeColor=#d79b00;fillColor=#ffe6cc;container=0;" vertex="1" parent="AXbUTmdRb_UvhCFr1R2s-147">
          <mxGeometry x="80" width="60" height="30" as="geometry" />
        </mxCell>
        <mxCell id="AXbUTmdRb_UvhCFr1R2s-203" value="service registry" style="text;html=1;align=center;verticalAlign=middle;whiteSpace=wrap;rounded=1;strokeColor=#d79b00;fillColor=#ffe6cc;container=0;" vertex="1" parent="AXbUTmdRb_UvhCFr1R2s-147">
          <mxGeometry x="315" width="60" height="30" as="geometry" />
        </mxCell>
        <mxCell id="AXbUTmdRb_UvhCFr1R2s-217" value="" style="group" vertex="1" connectable="0" parent="1">
          <mxGeometry x="2430" y="90" width="623" height="710" as="geometry" />
        </mxCell>
        <mxCell id="AXbUTmdRb_UvhCFr1R2s-208" value="" style="rounded=1;whiteSpace=wrap;html=1;strokeColor=default;align=left;verticalAlign=middle;fontFamily=Helvetica;fontSize=12;fontColor=default;fillColor=default;dashed=1;" vertex="1" parent="AXbUTmdRb_UvhCFr1R2s-217">
          <mxGeometry x="250" y="21.130952380952383" width="240" height="71.8452380952381" as="geometry" />
        </mxCell>
        <mxCell id="AXbUTmdRb_UvhCFr1R2s-205" value="CDN" style="rounded=1;whiteSpace=wrap;html=1;container=0;" vertex="1" parent="AXbUTmdRb_UvhCFr1R2s-217">
          <mxGeometry x="260" y="42.261904761904766" width="120" height="33.80952380952381" as="geometry" />
        </mxCell>
        <mxCell id="AXbUTmdRb_UvhCFr1R2s-207" value="Cache" style="rounded=1;whiteSpace=wrap;html=1;container=0;" vertex="1" parent="AXbUTmdRb_UvhCFr1R2s-217">
          <mxGeometry x="390" y="42.261904761904766" width="70" height="21.130952380952383" as="geometry" />
        </mxCell>
        <mxCell id="AXbUTmdRb_UvhCFr1R2s-209" value="Region 2" style="text;html=1;align=center;verticalAlign=middle;whiteSpace=wrap;rounded=0;fontFamily=Helvetica;fontSize=12;fontColor=default;" vertex="1" parent="AXbUTmdRb_UvhCFr1R2s-217">
          <mxGeometry x="250" width="60" height="25.357142857142858" as="geometry" />
        </mxCell>
        <mxCell id="AXbUTmdRb_UvhCFr1R2s-210" value="" style="rounded=1;whiteSpace=wrap;html=1;strokeColor=default;align=left;verticalAlign=middle;fontFamily=Helvetica;fontSize=12;fontColor=default;fillColor=default;dashed=1;" vertex="1" parent="AXbUTmdRb_UvhCFr1R2s-217">
          <mxGeometry y="21.130952380952383" width="240" height="71.8452380952381" as="geometry" />
        </mxCell>
        <mxCell id="AXbUTmdRb_UvhCFr1R2s-211" value="CDN" style="rounded=1;whiteSpace=wrap;html=1;container=0;" vertex="1" parent="AXbUTmdRb_UvhCFr1R2s-217">
          <mxGeometry x="10" y="42.261904761904766" width="120" height="33.80952380952381" as="geometry" />
        </mxCell>
        <mxCell id="AXbUTmdRb_UvhCFr1R2s-212" value="Cache" style="rounded=1;whiteSpace=wrap;html=1;container=0;" vertex="1" parent="AXbUTmdRb_UvhCFr1R2s-217">
          <mxGeometry x="140" y="42.261904761904766" width="70" height="21.130952380952383" as="geometry" />
        </mxCell>
        <mxCell id="AXbUTmdRb_UvhCFr1R2s-213" value="Region 1" style="text;html=1;align=center;verticalAlign=middle;whiteSpace=wrap;rounded=0;fontFamily=Helvetica;fontSize=12;fontColor=default;" vertex="1" parent="AXbUTmdRb_UvhCFr1R2s-217">
          <mxGeometry width="60" height="25.357142857142858" as="geometry" />
        </mxCell>
        <mxCell id="AXbUTmdRb_UvhCFr1R2s-214" value="" style="group" vertex="1" connectable="0" parent="AXbUTmdRb_UvhCFr1R2s-217">
          <mxGeometry x="43" y="126.78571428571428" width="580" height="583.2142857142858" as="geometry" />
        </mxCell>
        <mxCell id="AXbUTmdRb_UvhCFr1R2s-80" style="edgeStyle=orthogonalEdgeStyle;rounded=1;orthogonalLoop=1;jettySize=auto;html=1;exitX=1;exitY=0.5;exitDx=0;exitDy=0;exitPerimeter=0;entryX=0.5;entryY=1;entryDx=0;entryDy=0;curved=0;" edge="1" parent="AXbUTmdRb_UvhCFr1R2s-214" source="AXbUTmdRb_UvhCFr1R2s-81" target="AXbUTmdRb_UvhCFr1R2s-117">
          <mxGeometry relative="1" as="geometry">
            <Array as="points">
              <mxPoint x="170" y="447.97619047619054" />
              <mxPoint x="170" y="583.2142857142858" />
              <mxPoint x="380" y="583.2142857142858" />
              <mxPoint x="380" y="447.97619047619054" />
              <mxPoint x="520" y="447.97619047619054" />
            </Array>
          </mxGeometry>
        </mxCell>
        <mxCell id="AXbUTmdRb_UvhCFr1R2s-81" value="MongoDB" style="shape=cylinder3;whiteSpace=wrap;html=1;boundedLbl=1;backgroundOutline=1;size=15;container=0;" vertex="1" parent="AXbUTmdRb_UvhCFr1R2s-214">
          <mxGeometry x="60" y="414.1666666666667" width="60" height="67.61904761904762" as="geometry" />
        </mxCell>
        <mxCell id="AXbUTmdRb_UvhCFr1R2s-82" style="edgeStyle=orthogonalEdgeStyle;rounded=0;orthogonalLoop=1;jettySize=auto;html=1;entryX=0.5;entryY=0;entryDx=0;entryDy=0;" edge="1" parent="AXbUTmdRb_UvhCFr1R2s-214" source="AXbUTmdRb_UvhCFr1R2s-86" target="AXbUTmdRb_UvhCFr1R2s-92">
          <mxGeometry relative="1" as="geometry" />
        </mxCell>
        <mxCell id="AXbUTmdRb_UvhCFr1R2s-83" style="edgeStyle=orthogonalEdgeStyle;rounded=1;orthogonalLoop=1;jettySize=auto;html=1;exitX=0.5;exitY=1;exitDx=0;exitDy=0;entryX=0.5;entryY=0;entryDx=0;entryDy=0;curved=0;" edge="1" parent="AXbUTmdRb_UvhCFr1R2s-214" source="AXbUTmdRb_UvhCFr1R2s-86" target="AXbUTmdRb_UvhCFr1R2s-114">
          <mxGeometry relative="1" as="geometry" />
        </mxCell>
        <mxCell id="AXbUTmdRb_UvhCFr1R2s-84" style="edgeStyle=orthogonalEdgeStyle;rounded=1;orthogonalLoop=1;jettySize=auto;html=1;exitX=0.5;exitY=1;exitDx=0;exitDy=0;curved=0;entryX=0.5;entryY=0;entryDx=0;entryDy=0;entryPerimeter=0;" edge="1" parent="AXbUTmdRb_UvhCFr1R2s-214" source="AXbUTmdRb_UvhCFr1R2s-86" target="AXbUTmdRb_UvhCFr1R2s-109">
          <mxGeometry relative="1" as="geometry">
            <mxPoint x="400" y="245.11904761904765" as="targetPoint" />
            <Array as="points">
              <mxPoint x="90" y="202.8571428571429" />
              <mxPoint x="470" y="202.8571428571429" />
            </Array>
          </mxGeometry>
        </mxCell>
        <mxCell id="AXbUTmdRb_UvhCFr1R2s-85" style="edgeStyle=orthogonalEdgeStyle;rounded=1;orthogonalLoop=1;jettySize=auto;html=1;curved=0;entryX=0.5;entryY=1;entryDx=0;entryDy=0;" edge="1" parent="AXbUTmdRb_UvhCFr1R2s-214" source="AXbUTmdRb_UvhCFr1R2s-86" target="AXbUTmdRb_UvhCFr1R2s-130">
          <mxGeometry relative="1" as="geometry">
            <mxPoint x="400" y="59.16666666666668" as="targetPoint" />
            <Array as="points">
              <mxPoint x="90" y="185.95238095238096" />
              <mxPoint x="400" y="185.95238095238096" />
            </Array>
          </mxGeometry>
        </mxCell>
        <mxCell id="AXbUTmdRb_UvhCFr1R2s-86" value="pymongo-api" style="rounded=1;whiteSpace=wrap;html=1;container=0;" vertex="1" parent="AXbUTmdRb_UvhCFr1R2s-214">
          <mxGeometry x="30" y="135.23809523809524" width="120" height="33.80952380952381" as="geometry" />
        </mxCell>
        <mxCell id="AXbUTmdRb_UvhCFr1R2s-87" style="edgeStyle=orthogonalEdgeStyle;rounded=1;orthogonalLoop=1;jettySize=auto;html=1;exitX=1;exitY=0.5;exitDx=0;exitDy=0;exitPerimeter=0;entryX=0.5;entryY=1;entryDx=0;entryDy=0;curved=0;" edge="1" parent="AXbUTmdRb_UvhCFr1R2s-214" source="AXbUTmdRb_UvhCFr1R2s-88" target="AXbUTmdRb_UvhCFr1R2s-117">
          <mxGeometry relative="1" as="geometry" />
        </mxCell>
        <mxCell id="AXbUTmdRb_UvhCFr1R2s-88" value="MongoDB" style="shape=cylinder3;whiteSpace=wrap;html=1;boundedLbl=1;backgroundOutline=1;size=15;container=0;" vertex="1" parent="AXbUTmdRb_UvhCFr1R2s-214">
          <mxGeometry x="225" y="414.1666666666667" width="60" height="67.61904761904762" as="geometry" />
        </mxCell>
        <mxCell id="AXbUTmdRb_UvhCFr1R2s-89" style="edgeStyle=orthogonalEdgeStyle;rounded=1;orthogonalLoop=1;jettySize=auto;html=1;exitX=0.5;exitY=1;exitDx=0;exitDy=0;entryX=0.5;entryY=0;entryDx=0;entryDy=0;entryPerimeter=0;curved=0;" edge="1" parent="AXbUTmdRb_UvhCFr1R2s-214" source="AXbUTmdRb_UvhCFr1R2s-92" target="AXbUTmdRb_UvhCFr1R2s-88">
          <mxGeometry relative="1" as="geometry">
            <mxPoint x="250" y="414.1666666666667" as="targetPoint" />
          </mxGeometry>
        </mxCell>
        <mxCell id="AXbUTmdRb_UvhCFr1R2s-90" style="edgeStyle=orthogonalEdgeStyle;rounded=1;orthogonalLoop=1;jettySize=auto;html=1;exitX=0.5;exitY=1;exitDx=0;exitDy=0;curved=0;" edge="1" parent="AXbUTmdRb_UvhCFr1R2s-214" source="AXbUTmdRb_UvhCFr1R2s-92" target="AXbUTmdRb_UvhCFr1R2s-96">
          <mxGeometry relative="1" as="geometry">
            <Array as="points">
              <mxPoint x="90" y="338.09523809523813" />
              <mxPoint x="380" y="338.09523809523813" />
            </Array>
          </mxGeometry>
        </mxCell>
        <mxCell id="AXbUTmdRb_UvhCFr1R2s-91" style="edgeStyle=orthogonalEdgeStyle;rounded=1;orthogonalLoop=1;jettySize=auto;html=1;exitX=0.5;exitY=1;exitDx=0;exitDy=0;entryX=0.5;entryY=0;entryDx=0;entryDy=0;curved=0;" edge="1" parent="AXbUTmdRb_UvhCFr1R2s-214" source="AXbUTmdRb_UvhCFr1R2s-92" target="AXbUTmdRb_UvhCFr1R2s-117">
          <mxGeometry relative="1" as="geometry">
            <Array as="points">
              <mxPoint x="90" y="338.09523809523813" />
              <mxPoint x="520" y="338.09523809523813" />
            </Array>
          </mxGeometry>
        </mxCell>
        <mxCell id="AXbUTmdRb_UvhCFr1R2s-137" style="edgeStyle=orthogonalEdgeStyle;rounded=1;orthogonalLoop=1;jettySize=auto;html=1;entryX=0.5;entryY=1;entryDx=0;entryDy=0;fontFamily=Helvetica;fontSize=12;fontColor=default;curved=0;" edge="1" parent="AXbUTmdRb_UvhCFr1R2s-214" source="AXbUTmdRb_UvhCFr1R2s-92" target="AXbUTmdRb_UvhCFr1R2s-130">
          <mxGeometry relative="1" as="geometry" />
        </mxCell>
        <mxCell id="AXbUTmdRb_UvhCFr1R2s-92" value="MongoDB Router" style="rounded=1;whiteSpace=wrap;html=1;container=0;" vertex="1" parent="AXbUTmdRb_UvhCFr1R2s-214">
          <mxGeometry x="30" y="262.0238095238096" width="120" height="50.71428571428572" as="geometry" />
        </mxCell>
        <mxCell id="AXbUTmdRb_UvhCFr1R2s-93" value="configSrv-1" style="text;html=1;align=center;verticalAlign=middle;whiteSpace=wrap;rounded=1;strokeColor=#d79b00;fillColor=#ffe6cc;container=0;" vertex="1" parent="AXbUTmdRb_UvhCFr1R2s-214">
          <mxGeometry x="310" y="346.5476190476191" width="60" height="25.35714285714286" as="geometry" />
        </mxCell>
        <mxCell id="AXbUTmdRb_UvhCFr1R2s-94" value="shard1-1" style="text;html=1;align=center;verticalAlign=middle;whiteSpace=wrap;rounded=1;strokeColor=#d79b00;fillColor=#ffe6cc;container=0;" vertex="1" parent="AXbUTmdRb_UvhCFr1R2s-214">
          <mxGeometry y="397.2619047619048" width="60" height="25.35714285714286" as="geometry" />
        </mxCell>
        <mxCell id="AXbUTmdRb_UvhCFr1R2s-95" value="shard2-1" style="text;html=1;align=center;verticalAlign=middle;whiteSpace=wrap;rounded=1;strokeColor=#d79b00;fillColor=#ffe6cc;container=0;" vertex="1" parent="AXbUTmdRb_UvhCFr1R2s-214">
          <mxGeometry x="165" y="397.2619047619048" width="60" height="25.35714285714286" as="geometry" />
        </mxCell>
        <mxCell id="AXbUTmdRb_UvhCFr1R2s-96" value="MongoDB Config Server" style="rounded=1;whiteSpace=wrap;html=1;container=0;" vertex="1" parent="AXbUTmdRb_UvhCFr1R2s-214">
          <mxGeometry x="320" y="371.9047619047619" width="120" height="50.71428571428572" as="geometry" />
        </mxCell>
        <mxCell id="AXbUTmdRb_UvhCFr1R2s-97" value="router-1" style="text;html=1;align=center;verticalAlign=middle;whiteSpace=wrap;rounded=1;strokeColor=#d79b00;fillColor=#ffe6cc;container=0;" vertex="1" parent="AXbUTmdRb_UvhCFr1R2s-214">
          <mxGeometry x="20" y="236.6666666666667" width="60" height="25.35714285714286" as="geometry" />
        </mxCell>
        <mxCell id="AXbUTmdRb_UvhCFr1R2s-98" value="" style="endArrow=classic;html=1;rounded=1;exitX=1;exitY=0.5;exitDx=0;exitDy=0;exitPerimeter=0;entryX=0.5;entryY=1;entryDx=0;entryDy=0;curved=0;" edge="1" parent="AXbUTmdRb_UvhCFr1R2s-214" source="AXbUTmdRb_UvhCFr1R2s-88" target="AXbUTmdRb_UvhCFr1R2s-96">
          <mxGeometry width="50" height="50" relative="1" as="geometry">
            <mxPoint x="485" y="211.30952380952382" as="sourcePoint" />
            <mxPoint x="535" y="169.04761904761907" as="targetPoint" />
            <Array as="points">
              <mxPoint x="380" y="447.97619047619054" />
            </Array>
          </mxGeometry>
        </mxCell>
        <mxCell id="AXbUTmdRb_UvhCFr1R2s-99" value="" style="endArrow=classic;html=1;rounded=1;exitX=1;exitY=0.5;exitDx=0;exitDy=0;exitPerimeter=0;entryX=0.5;entryY=1;entryDx=0;entryDy=0;curved=0;" edge="1" parent="AXbUTmdRb_UvhCFr1R2s-214" source="AXbUTmdRb_UvhCFr1R2s-81" target="AXbUTmdRb_UvhCFr1R2s-96">
          <mxGeometry width="50" height="50" relative="1" as="geometry">
            <mxPoint x="355" y="456.4285714285715" as="sourcePoint" />
            <mxPoint x="485" y="321.1904761904762" as="targetPoint" />
            <Array as="points">
              <mxPoint x="170" y="447.97619047619054" />
              <mxPoint x="170" y="481.78571428571433" />
              <mxPoint x="170" y="583.2142857142858" />
              <mxPoint x="270" y="583.2142857142858" />
              <mxPoint x="380" y="583.2142857142858" />
              <mxPoint x="380" y="447.97619047619054" />
            </Array>
          </mxGeometry>
        </mxCell>
        <mxCell id="AXbUTmdRb_UvhCFr1R2s-100" value="api" style="text;html=1;align=center;verticalAlign=middle;whiteSpace=wrap;rounded=1;strokeColor=#d79b00;fillColor=#ffe6cc;container=0;" vertex="1" parent="AXbUTmdRb_UvhCFr1R2s-214">
          <mxGeometry x="20" y="109.8809523809524" width="60" height="25.35714285714286" as="geometry" />
        </mxCell>
        <mxCell id="AXbUTmdRb_UvhCFr1R2s-101" value="MongoDB" style="shape=cylinder3;whiteSpace=wrap;html=1;boundedLbl=1;backgroundOutline=1;size=15;container=0;" vertex="1" parent="AXbUTmdRb_UvhCFr1R2s-214">
          <mxGeometry x="30" y="481.78571428571433" width="60" height="67.61904761904762" as="geometry" />
        </mxCell>
        <mxCell id="AXbUTmdRb_UvhCFr1R2s-102" value="shard1-2" style="text;html=1;align=center;verticalAlign=middle;whiteSpace=wrap;rounded=1;strokeColor=#d79b00;fillColor=#ffe6cc;container=0;" vertex="1" parent="AXbUTmdRb_UvhCFr1R2s-214">
          <mxGeometry x="30" y="549.404761904762" width="60" height="25.35714285714286" as="geometry" />
        </mxCell>
        <mxCell id="AXbUTmdRb_UvhCFr1R2s-103" value="MongoDB" style="shape=cylinder3;whiteSpace=wrap;html=1;boundedLbl=1;backgroundOutline=1;size=15;container=0;" vertex="1" parent="AXbUTmdRb_UvhCFr1R2s-214">
          <mxGeometry x="90" y="481.78571428571433" width="60" height="67.61904761904762" as="geometry" />
        </mxCell>
        <mxCell id="AXbUTmdRb_UvhCFr1R2s-104" value="shard1-3" style="text;html=1;align=center;verticalAlign=middle;whiteSpace=wrap;rounded=1;strokeColor=#d79b00;fillColor=#ffe6cc;container=0;" vertex="1" parent="AXbUTmdRb_UvhCFr1R2s-214">
          <mxGeometry x="90" y="549.404761904762" width="60" height="25.35714285714286" as="geometry" />
        </mxCell>
        <mxCell id="AXbUTmdRb_UvhCFr1R2s-105" value="MongoDB" style="shape=cylinder3;whiteSpace=wrap;html=1;boundedLbl=1;backgroundOutline=1;size=15;container=0;" vertex="1" parent="AXbUTmdRb_UvhCFr1R2s-214">
          <mxGeometry x="195" y="481.78571428571433" width="60" height="67.61904761904762" as="geometry" />
        </mxCell>
        <mxCell id="AXbUTmdRb_UvhCFr1R2s-106" value="MongoDB" style="shape=cylinder3;whiteSpace=wrap;html=1;boundedLbl=1;backgroundOutline=1;size=15;container=0;" vertex="1" parent="AXbUTmdRb_UvhCFr1R2s-214">
          <mxGeometry x="255" y="481.78571428571433" width="60" height="67.61904761904762" as="geometry" />
        </mxCell>
        <mxCell id="AXbUTmdRb_UvhCFr1R2s-107" value="shard2-2" style="text;html=1;align=center;verticalAlign=middle;whiteSpace=wrap;rounded=1;strokeColor=#d79b00;fillColor=#ffe6cc;container=0;" vertex="1" parent="AXbUTmdRb_UvhCFr1R2s-214">
          <mxGeometry x="195" y="549.404761904762" width="60" height="25.35714285714286" as="geometry" />
        </mxCell>
        <mxCell id="AXbUTmdRb_UvhCFr1R2s-108" value="shard2-3" style="text;html=1;align=center;verticalAlign=middle;whiteSpace=wrap;rounded=1;strokeColor=#d79b00;fillColor=#ffe6cc;container=0;" vertex="1" parent="AXbUTmdRb_UvhCFr1R2s-214">
          <mxGeometry x="255" y="549.404761904762" width="60" height="25.35714285714286" as="geometry" />
        </mxCell>
        <mxCell id="AXbUTmdRb_UvhCFr1R2s-143" style="edgeStyle=orthogonalEdgeStyle;rounded=1;orthogonalLoop=1;jettySize=auto;html=1;exitX=1;exitY=0.5;exitDx=0;exitDy=0;exitPerimeter=0;entryX=0.5;entryY=1;entryDx=0;entryDy=0;fontFamily=Helvetica;fontSize=12;fontColor=default;curved=0;" edge="1" parent="AXbUTmdRb_UvhCFr1R2s-214" source="AXbUTmdRb_UvhCFr1R2s-109" target="AXbUTmdRb_UvhCFr1R2s-130">
          <mxGeometry relative="1" as="geometry" />
        </mxCell>
        <mxCell id="AXbUTmdRb_UvhCFr1R2s-109" value="Redis" style="shape=cylinder3;whiteSpace=wrap;html=1;boundedLbl=1;backgroundOutline=1;size=15;container=0;" vertex="1" parent="AXbUTmdRb_UvhCFr1R2s-214">
          <mxGeometry x="440" y="245.11904761904765" width="60" height="67.61904761904762" as="geometry" />
        </mxCell>
        <mxCell id="AXbUTmdRb_UvhCFr1R2s-110" value="cache1-1" style="text;html=1;align=center;verticalAlign=middle;whiteSpace=wrap;rounded=1;strokeColor=#d79b00;fillColor=#ffe6cc;container=0;" vertex="1" parent="AXbUTmdRb_UvhCFr1R2s-214">
          <mxGeometry x="320" y="219.7619047619048" width="60" height="25.35714285714286" as="geometry" />
        </mxCell>
        <mxCell id="AXbUTmdRb_UvhCFr1R2s-111" style="edgeStyle=orthogonalEdgeStyle;rounded=1;orthogonalLoop=1;jettySize=auto;html=1;exitX=0.5;exitY=1;exitDx=0;exitDy=0;curved=0;" edge="1" parent="AXbUTmdRb_UvhCFr1R2s-214" source="AXbUTmdRb_UvhCFr1R2s-114" target="AXbUTmdRb_UvhCFr1R2s-88">
          <mxGeometry relative="1" as="geometry" />
        </mxCell>
        <mxCell id="AXbUTmdRb_UvhCFr1R2s-112" style="edgeStyle=orthogonalEdgeStyle;rounded=1;orthogonalLoop=1;jettySize=auto;html=1;exitX=0.5;exitY=1;exitDx=0;exitDy=0;entryX=0.5;entryY=0;entryDx=0;entryDy=0;curved=0;" edge="1" parent="AXbUTmdRb_UvhCFr1R2s-214" source="AXbUTmdRb_UvhCFr1R2s-114" target="AXbUTmdRb_UvhCFr1R2s-96">
          <mxGeometry relative="1" as="geometry">
            <Array as="points">
              <mxPoint x="255" y="338.09523809523813" />
              <mxPoint x="380" y="338.09523809523813" />
            </Array>
          </mxGeometry>
        </mxCell>
        <mxCell id="AXbUTmdRb_UvhCFr1R2s-113" style="edgeStyle=orthogonalEdgeStyle;rounded=1;orthogonalLoop=1;jettySize=auto;html=1;exitX=0.5;exitY=1;exitDx=0;exitDy=0;entryX=0.5;entryY=0;entryDx=0;entryDy=0;curved=0;" edge="1" parent="AXbUTmdRb_UvhCFr1R2s-214" source="AXbUTmdRb_UvhCFr1R2s-114" target="AXbUTmdRb_UvhCFr1R2s-117">
          <mxGeometry relative="1" as="geometry">
            <Array as="points">
              <mxPoint x="255" y="338.09523809523813" />
              <mxPoint x="520" y="338.09523809523813" />
            </Array>
          </mxGeometry>
        </mxCell>
        <mxCell id="AXbUTmdRb_UvhCFr1R2s-139" style="edgeStyle=orthogonalEdgeStyle;rounded=1;orthogonalLoop=1;jettySize=auto;html=1;exitX=1;exitY=0.5;exitDx=0;exitDy=0;fontFamily=Helvetica;fontSize=12;fontColor=default;curved=0;" edge="1" parent="AXbUTmdRb_UvhCFr1R2s-214" source="AXbUTmdRb_UvhCFr1R2s-114">
          <mxGeometry relative="1" as="geometry">
            <mxPoint x="400" y="59.16666666666668" as="targetPoint" />
          </mxGeometry>
        </mxCell>
        <mxCell id="AXbUTmdRb_UvhCFr1R2s-114" value="MongoDB Router" style="rounded=1;whiteSpace=wrap;html=1;container=0;" vertex="1" parent="AXbUTmdRb_UvhCFr1R2s-214">
          <mxGeometry x="195" y="262.0238095238096" width="120" height="50.71428571428572" as="geometry" />
        </mxCell>
        <mxCell id="AXbUTmdRb_UvhCFr1R2s-115" value="router-2" style="text;html=1;align=center;verticalAlign=middle;whiteSpace=wrap;rounded=1;strokeColor=#d79b00;fillColor=#ffe6cc;container=0;" vertex="1" parent="AXbUTmdRb_UvhCFr1R2s-214">
          <mxGeometry x="184" y="236.6666666666667" width="60" height="25.35714285714286" as="geometry" />
        </mxCell>
        <mxCell id="AXbUTmdRb_UvhCFr1R2s-116" value="configSrv-2" style="text;html=1;align=center;verticalAlign=middle;whiteSpace=wrap;rounded=1;strokeColor=#d79b00;fillColor=#ffe6cc;container=0;" vertex="1" parent="AXbUTmdRb_UvhCFr1R2s-214">
          <mxGeometry x="450" y="346.5476190476191" width="60" height="25.35714285714286" as="geometry" />
        </mxCell>
        <mxCell id="AXbUTmdRb_UvhCFr1R2s-117" value="MongoDB Config Server" style="rounded=1;whiteSpace=wrap;html=1;container=0;" vertex="1" parent="AXbUTmdRb_UvhCFr1R2s-214">
          <mxGeometry x="460" y="371.9047619047619" width="120" height="50.71428571428572" as="geometry" />
        </mxCell>
        <mxCell id="AXbUTmdRb_UvhCFr1R2s-118" style="edgeStyle=orthogonalEdgeStyle;rounded=1;orthogonalLoop=1;jettySize=auto;html=1;exitX=0.5;exitY=1;exitDx=0;exitDy=0;entryX=0.5;entryY=0;entryDx=0;entryDy=0;entryPerimeter=0;curved=0;" edge="1" parent="AXbUTmdRb_UvhCFr1R2s-214" source="AXbUTmdRb_UvhCFr1R2s-92" target="AXbUTmdRb_UvhCFr1R2s-81">
          <mxGeometry relative="1" as="geometry" />
        </mxCell>
        <mxCell id="AXbUTmdRb_UvhCFr1R2s-119" style="edgeStyle=orthogonalEdgeStyle;rounded=1;orthogonalLoop=1;jettySize=auto;html=1;exitX=0.5;exitY=1;exitDx=0;exitDy=0;entryX=0.5;entryY=0;entryDx=0;entryDy=0;entryPerimeter=0;curved=0;" edge="1" parent="AXbUTmdRb_UvhCFr1R2s-214" source="AXbUTmdRb_UvhCFr1R2s-114" target="AXbUTmdRb_UvhCFr1R2s-81">
          <mxGeometry relative="1" as="geometry" />
        </mxCell>
        <mxCell id="AXbUTmdRb_UvhCFr1R2s-120" style="edgeStyle=orthogonalEdgeStyle;rounded=1;orthogonalLoop=1;jettySize=auto;html=1;exitX=0.5;exitY=1;exitDx=0;exitDy=0;entryX=0.5;entryY=0;entryDx=0;entryDy=0;curved=0;" edge="1" parent="AXbUTmdRb_UvhCFr1R2s-214" source="AXbUTmdRb_UvhCFr1R2s-122" target="AXbUTmdRb_UvhCFr1R2s-92">
          <mxGeometry relative="1" as="geometry" />
        </mxCell>
        <mxCell id="AXbUTmdRb_UvhCFr1R2s-121" style="edgeStyle=orthogonalEdgeStyle;rounded=1;orthogonalLoop=1;jettySize=auto;html=1;exitX=1;exitY=0.5;exitDx=0;exitDy=0;entryX=0.5;entryY=1;entryDx=0;entryDy=0;curved=0;" edge="1" parent="AXbUTmdRb_UvhCFr1R2s-214" source="AXbUTmdRb_UvhCFr1R2s-122" target="AXbUTmdRb_UvhCFr1R2s-130">
          <mxGeometry relative="1" as="geometry" />
        </mxCell>
        <mxCell id="AXbUTmdRb_UvhCFr1R2s-122" value="pymongo-api" style="rounded=1;whiteSpace=wrap;html=1;container=0;" vertex="1" parent="AXbUTmdRb_UvhCFr1R2s-214">
          <mxGeometry x="195" y="135.23809523809524" width="120" height="33.80952380952381" as="geometry" />
        </mxCell>
        <mxCell id="AXbUTmdRb_UvhCFr1R2s-123" value="api" style="text;html=1;align=center;verticalAlign=middle;whiteSpace=wrap;rounded=1;strokeColor=#d79b00;fillColor=#ffe6cc;container=0;" vertex="1" parent="AXbUTmdRb_UvhCFr1R2s-214">
          <mxGeometry x="180" y="109.8809523809524" width="60" height="25.35714285714286" as="geometry" />
        </mxCell>
        <mxCell id="AXbUTmdRb_UvhCFr1R2s-124" style="edgeStyle=orthogonalEdgeStyle;rounded=1;orthogonalLoop=1;jettySize=auto;html=1;exitX=0.5;exitY=1;exitDx=0;exitDy=0;entryX=0.5;entryY=0;entryDx=0;entryDy=0;curved=0;" edge="1" parent="AXbUTmdRb_UvhCFr1R2s-214" source="AXbUTmdRb_UvhCFr1R2s-122" target="AXbUTmdRb_UvhCFr1R2s-114">
          <mxGeometry relative="1" as="geometry" />
        </mxCell>
        <mxCell id="AXbUTmdRb_UvhCFr1R2s-125" style="edgeStyle=orthogonalEdgeStyle;rounded=1;orthogonalLoop=1;jettySize=auto;html=1;exitX=0.5;exitY=1;exitDx=0;exitDy=0;entryX=0.5;entryY=0;entryDx=0;entryDy=0;entryPerimeter=0;curved=0;" edge="1" parent="AXbUTmdRb_UvhCFr1R2s-214" source="AXbUTmdRb_UvhCFr1R2s-122" target="AXbUTmdRb_UvhCFr1R2s-109">
          <mxGeometry relative="1" as="geometry">
            <Array as="points">
              <mxPoint x="255" y="202.8571428571429" />
              <mxPoint x="470" y="202.8571428571429" />
            </Array>
          </mxGeometry>
        </mxCell>
        <mxCell id="AXbUTmdRb_UvhCFr1R2s-126" style="edgeStyle=orthogonalEdgeStyle;rounded=1;orthogonalLoop=1;jettySize=auto;html=1;exitX=0.5;exitY=1;exitDx=0;exitDy=0;entryX=0.5;entryY=0;entryDx=0;entryDy=0;curved=0;" edge="1" parent="AXbUTmdRb_UvhCFr1R2s-214" source="AXbUTmdRb_UvhCFr1R2s-129" target="AXbUTmdRb_UvhCFr1R2s-86">
          <mxGeometry relative="1" as="geometry" />
        </mxCell>
        <mxCell id="AXbUTmdRb_UvhCFr1R2s-127" style="edgeStyle=orthogonalEdgeStyle;rounded=1;orthogonalLoop=1;jettySize=auto;html=1;exitX=0.5;exitY=1;exitDx=0;exitDy=0;entryX=0.5;entryY=0;entryDx=0;entryDy=0;curved=0;" edge="1" parent="AXbUTmdRb_UvhCFr1R2s-214" source="AXbUTmdRb_UvhCFr1R2s-129" target="AXbUTmdRb_UvhCFr1R2s-122">
          <mxGeometry relative="1" as="geometry" />
        </mxCell>
        <mxCell id="AXbUTmdRb_UvhCFr1R2s-128" style="edgeStyle=orthogonalEdgeStyle;rounded=1;orthogonalLoop=1;jettySize=auto;html=1;exitX=1;exitY=0.5;exitDx=0;exitDy=0;entryX=0;entryY=0.5;entryDx=0;entryDy=0;curved=0;" edge="1" parent="AXbUTmdRb_UvhCFr1R2s-214" source="AXbUTmdRb_UvhCFr1R2s-129" target="AXbUTmdRb_UvhCFr1R2s-130">
          <mxGeometry relative="1" as="geometry" />
        </mxCell>
        <mxCell id="AXbUTmdRb_UvhCFr1R2s-129" value="API Gateway" style="rounded=1;whiteSpace=wrap;html=1;container=0;" vertex="1" parent="AXbUTmdRb_UvhCFr1R2s-214">
          <mxGeometry x="105" y="25.35714285714286" width="120" height="33.80952380952381" as="geometry" />
        </mxCell>
        <mxCell id="AXbUTmdRb_UvhCFr1R2s-130" value="Consul" style="rounded=1;whiteSpace=wrap;html=1;container=0;" vertex="1" parent="AXbUTmdRb_UvhCFr1R2s-214">
          <mxGeometry x="340" y="25.35714285714286" width="120" height="33.80952380952381" as="geometry" />
        </mxCell>
        <mxCell id="AXbUTmdRb_UvhCFr1R2s-131" value="api" style="text;html=1;align=center;verticalAlign=middle;whiteSpace=wrap;rounded=1;strokeColor=#d79b00;fillColor=#ffe6cc;container=0;" vertex="1" parent="AXbUTmdRb_UvhCFr1R2s-214">
          <mxGeometry x="80" width="60" height="25.35714285714286" as="geometry" />
        </mxCell>
        <mxCell id="AXbUTmdRb_UvhCFr1R2s-132" value="service registry" style="text;html=1;align=center;verticalAlign=middle;whiteSpace=wrap;rounded=1;strokeColor=#d79b00;fillColor=#ffe6cc;container=0;" vertex="1" parent="AXbUTmdRb_UvhCFr1R2s-214">
          <mxGeometry x="315" width="60" height="25.35714285714286" as="geometry" />
        </mxCell>
        <mxCell id="AXbUTmdRb_UvhCFr1R2s-215" style="edgeStyle=orthogonalEdgeStyle;rounded=1;orthogonalLoop=1;jettySize=auto;html=1;exitX=0.5;exitY=0;exitDx=0;exitDy=0;entryX=0.5;entryY=1;entryDx=0;entryDy=0;fontFamily=Helvetica;fontSize=12;fontColor=default;curved=0;" edge="1" parent="AXbUTmdRb_UvhCFr1R2s-217" source="AXbUTmdRb_UvhCFr1R2s-129" target="AXbUTmdRb_UvhCFr1R2s-210">
          <mxGeometry relative="1" as="geometry">
            <Array as="points">
              <mxPoint x="208" y="110" />
              <mxPoint x="120" y="110" />
            </Array>
          </mxGeometry>
        </mxCell>
        <mxCell id="AXbUTmdRb_UvhCFr1R2s-216" style="edgeStyle=orthogonalEdgeStyle;rounded=1;orthogonalLoop=1;jettySize=auto;html=1;exitX=0.5;exitY=0;exitDx=0;exitDy=0;entryX=0.5;entryY=1;entryDx=0;entryDy=0;fontFamily=Helvetica;fontSize=12;fontColor=default;curved=0;" edge="1" parent="AXbUTmdRb_UvhCFr1R2s-217" source="AXbUTmdRb_UvhCFr1R2s-129" target="AXbUTmdRb_UvhCFr1R2s-208">
          <mxGeometry relative="1" as="geometry">
            <Array as="points">
              <mxPoint x="208" y="110" />
              <mxPoint x="370" y="110" />
            </Array>
          </mxGeometry>
        </mxCell>
        <mxCell id="AXbUTmdRb_UvhCFr1R2s-218" value="&lt;b&gt;CDN:&lt;/b&gt; Для глобального кэширования данных и предоставления их пользователям из ближайших точек присутствия.&lt;br&gt;&lt;p class=&quot;p2&quot;&gt;&lt;b&gt;Cache:&lt;/b&gt; Например, Redis для временного хранения динамических данных в регионе&lt;/p&gt;" style="text;whiteSpace=wrap;html=1;fontFamily=Helvetica;fontSize=12;fontColor=default;" vertex="1" parent="1">
          <mxGeometry x="2950" y="100" width="320" height="90" as="geometry" />
        </mxCell>
      </root>
    </mxGraphModel>
  </diagram>
</mxfile>
